<?xml version="1.0" encoding="UTF-8"?><!DOCTYPE svg PUBLIC "-//W3C//DTD SVG 1.1//EN" "http://www.w3.org/Graphics/SVG/1.1/DTD/svg11.dtd"><svg xmlns="http://www.w3.org/2000/svg" xmlns:xlink="http://www.w3.org/1999/xlink"><defs>
        <clipPath id="clip0_216_31562">
            <rect width="24" height="24" fill="white" transform="translate(0.396484)"/>
        </clipPath>
    
        <clipPath id="clip0_17_40">
            <rect width="48" height="48" fill="white"/>
        </clipPath>
    
        <clipPath id="clip0_216_31548">
            <rect width="21.9803" height="21.9803" fill="white" transform="translate(0.812012 0.99028)"/>
        </clipPath>
    </defs><symbol id="add" viewBox="0 0 24 24">
    <path d="M18 12.75H6C5.59 12.75 5.25 12.41 5.25 12C5.25 11.59 5.59 11.25 6 11.25H18C18.41 11.25 18.75 11.59 18.75 12C18.75 12.41 18.41 12.75 18 12.75Z" fill="currentColor"/>
    <path d="M12 18.75C11.59 18.75 11.25 18.41 11.25 18V6C11.25 5.59 11.59 5.25 12 5.25C12.41 5.25 12.75 5.59 12.75 6V18C12.75 18.41 12.41 18.75 12 18.75Z" fill="currentColor"/>
</symbol><symbol id="arrowForward" viewBox="0 0 24 24">
    <path d="M11.1161 6.88388C10.628 6.39573 10.628 5.60427 11.1161 5.11612C11.6043 4.62796 12.3957 4.62796 12.8839 5.11612L11.1161 6.88388ZM18 12L18.8839 11.1161C19.1183 11.3505 19.25 11.6685 19.25 12C19.25 12.3315 19.1183 12.6495 18.8839 12.8839L18 12ZM12.8839 18.8839C12.3957 19.372 11.6043 19.372 11.1161 18.8839C10.628 18.3957 10.628 17.6043 11.1161 17.1161L12.8839 18.8839ZM12.8839 5.11612L18.8839 11.1161L17.1161 12.8839L11.1161 6.88388L12.8839 5.11612ZM18.8839 12.8839L12.8839 18.8839L11.1161 17.1161L17.1161 11.1161L18.8839 12.8839Z" fill="currentColor"/>
    <path d="M6 12L17 12" stroke="currentColor" stroke-width="2.5" stroke-linecap="round" stroke-linejoin="round"/>
</symbol><symbol id="back" viewBox="0 0 24 24">
    <path fill-rule="evenodd" clip-rule="evenodd" d="M22 12.0002C22 6.47736 17.5225 2.00024 12 2.00024C6.47745 2.00024 2 6.47736 2 12.0002C2 17.5225 6.47779 22.0002 12 22.0002C17.5222 22.0002 22 17.5225 22 12.0002ZM20.5 12.0002C20.5 16.694 16.6938 20.5002 12 20.5002C7.30621 20.5002 3.5 16.694 3.5 12.0002C3.5 7.30582 7.30586 3.50024 12 3.50024C16.6941 3.50024 20.5 7.30582 20.5 12.0002ZM14.0443 8.97655C14.2628 8.68341 14.2395 8.2667 13.9738 7.99986C13.6815 7.70633 13.2066 7.70531 12.9131 7.99757L9.42711 11.4686L9.35412 11.5528C9.13513 11.8469 9.15946 12.265 9.42711 12.5315L12.9131 16.0025L12.9974 16.075C13.2915 16.2922 13.7081 16.2671 13.9738 16.0002L14.0462 15.916C14.2634 15.6219 14.2383 15.2053 13.9715 14.9396L11.02 11.999L13.9715 9.06052L14.0443 8.97655Z" fill="currentColor"/>
</symbol><symbol id="bank" viewBox="0 0 24 24">
    <path d="M12.37 2.15009L21.37 5.75006C21.72 5.89006 22 6.31006 22 6.68006V10.0001C22 10.5501 21.55 11.0001 21 11.0001H3C2.45 11.0001 2 10.5501 2 10.0001V6.68006C2 6.31006 2.28 5.89006 2.63 5.75006L11.63 2.15009C11.83 2.07009 12.17 2.07009 12.37 2.15009Z" stroke="currentColor" fill-opacity="0" stroke-width="1.5" stroke-miterlimit="10" stroke-linecap="round" stroke-linejoin="round"/>
    <path d="M22 22H2V19C2 18.45 2.45 18 3 18H21C21.55 18 22 18.45 22 19V22Z" stroke="currentColor" fill-opacity="0" stroke-width="1.5" stroke-miterlimit="10" stroke-linecap="round" stroke-linejoin="round"/>
    <path d="M4 18V11" stroke="currentColor" fill-opacity="0" stroke-width="1.5" stroke-miterlimit="10" stroke-linecap="round" stroke-linejoin="round"/>
    <path d="M8 18V11" stroke="currentColor" fill-opacity="0" stroke-width="1.5" stroke-miterlimit="10" stroke-linecap="round" stroke-linejoin="round"/>
    <path d="M12 18V11" stroke="currentColor" fill-opacity="0" stroke-width="1.5" stroke-miterlimit="10" stroke-linecap="round" stroke-linejoin="round"/>
    <path d="M16 18V11" stroke="currentColor" fill-opacity="0" stroke-width="1.5" stroke-miterlimit="10" stroke-linecap="round" stroke-linejoin="round"/>
    <path d="M20 18V11" stroke="currentColor" fill-opacity="0" stroke-width="1.5" stroke-miterlimit="10" stroke-linecap="round" stroke-linejoin="round"/>
    <path d="M1 22H23" stroke="currentColor" fill-opacity="0" stroke-width="1.5" stroke-miterlimit="10" stroke-linecap="round" stroke-linejoin="round"/>
    <path d="M12 8.5C12.8284 8.5 13.5 7.82843 13.5 7C13.5 6.17157 12.8284 5.5 12 5.5C11.1716 5.5 10.5 6.17157 10.5 7C10.5 7.82843 11.1716 8.5 12 8.5Z" stroke="currentColor" fill-opacity="0" stroke-width="1.5" stroke-miterlimit="10" stroke-linecap="round" stroke-linejoin="round"/>
</symbol><symbol id="biz" viewBox="0 0 25 24">
    <g clip-path="url(#clip0_216_31562)">
        <path d="M12.3965 7V5C12.3965 3.9 11.4965 3 10.3965 3H4.39648C3.29648 3 2.39648 3.9 2.39648 5V19C2.39648 20.1 3.29648 21 4.39648 21H20.3965C21.4965 21 22.3965 20.1 22.3965 19V9C22.3965 7.9 21.4965 7 20.3965 7H12.3965ZM6.39648 19H4.39648V17H6.39648V19ZM6.39648 15H4.39648V13H6.39648V15ZM6.39648 11H4.39648V9H6.39648V11ZM6.39648 7H4.39648V5H6.39648V7ZM10.3965 19H8.39648V17H10.3965V19ZM10.3965 15H8.39648V13H10.3965V15ZM10.3965 11H8.39648V9H10.3965V11ZM10.3965 7H8.39648V5H10.3965V7ZM19.3965 19H12.3965V17H14.3965V15H12.3965V13H14.3965V11H12.3965V9H19.3965C19.9465 9 20.3965 9.45 20.3965 10V18C20.3965 18.55 19.9465 19 19.3965 19ZM18.3965 11H16.3965V13H18.3965V11ZM18.3965 15H16.3965V17H18.3965V15Z" fill="white"/>
    </g>
    
</symbol><symbol id="cart" viewBox="0 0 24 24">
    <path d="M2 2H3.74001C4.82001 2 5.67 2.93 5.58 4L4.75 13.96C4.61 15.59 5.89999 16.99 7.53999 16.99H18.19C19.63 16.99 20.89 15.81 21 14.38L21.54 6.88C21.66 5.22 20.4 3.87 18.73 3.87H5.82001" stroke="#292D32" stroke-width="1.5" stroke-miterlimit="10" stroke-linecap="round" stroke-linejoin="round" fill-opacity="0"/>
    <path d="M16.25 22C16.9404 22 17.5 21.4404 17.5 20.75C17.5 20.0596 16.9404 19.5 16.25 19.5C15.5596 19.5 15 20.0596 15 20.75C15 21.4404 15.5596 22 16.25 22Z" stroke="#292D32" stroke-width="1.5" stroke-miterlimit="10" stroke-linecap="round" stroke-linejoin="round" fill-opacity="0"/>
    <path d="M8.25 22C8.94036 22 9.5 21.4404 9.5 20.75C9.5 20.0596 8.94036 19.5 8.25 19.5C7.55964 19.5 7 20.0596 7 20.75C7 21.4404 7.55964 22 8.25 22Z" stroke="#292D32" stroke-width="1.5" stroke-miterlimit="10" stroke-linecap="round" stroke-linejoin="round" fill-opacity="0"/>
    <path d="M9 8H21" stroke="#292D32" stroke-width="1.5" stroke-miterlimit="10" stroke-linecap="round" stroke-linejoin="round" fill-opacity="0"/>
</symbol><symbol id="cash" viewBox="0 0 24 24">
    <rect x="0.900146" y="4.5" width="22.2" height="15" rx="1.5" stroke="currentColor" stroke-width="1.5"/>
    <mask id="path-2-inside-1_4203_675" fill="white">
        <path fill-rule="evenodd" clip-rule="evenodd" d="M12 17.25C14.0711 17.25 15.75 14.8995 15.75 12C15.75 9.10051 14.0711 6.75 12 6.75C9.92893 6.75 8.25 9.10051 8.25 12C8.25 14.8995 9.92893 17.25 12 17.25ZM13.9563 15V13.9796H12.6821V9H11.8681L9.90015 10.0603V10.0948L10.1371 10.8356H10.1783L11.5693 10.2838V13.9796H10.1783V15H13.9563Z"/>
    </mask>
    <path fill-rule="evenodd" clip-rule="evenodd" d="M12 17.25C14.0711 17.25 15.75 14.8995 15.75 12C15.75 9.10051 14.0711 6.75 12 6.75C9.92893 6.75 8.25 9.10051 8.25 12C8.25 14.8995 9.92893 17.25 12 17.25ZM13.9563 15V13.9796H12.6821V9H11.8681L9.90015 10.0603V10.0948L10.1371 10.8356H10.1783L11.5693 10.2838V13.9796H10.1783V15H13.9563Z" fill="currentColor"/>
    <path d="M13.9563 13.9796H15.4563V12.4796H13.9563V13.9796ZM13.9563 15V16.5H15.4563V15H13.9563ZM12.6821 13.9796H11.1821V15.4796H12.6821V13.9796ZM12.6821 9H14.1821V7.5H12.6821V9ZM11.8681 9V7.5H11.4897L11.1566 7.67948L11.8681 9ZM9.90015 10.0603L9.18865 8.73983L8.40015 9.16467V10.0603H9.90015ZM9.90015 10.0948H8.40015V10.3289L8.47148 10.5519L9.90015 10.0948ZM10.1371 10.8356L8.70846 11.2926L9.04212 12.3356H10.1371V10.8356ZM10.1783 10.8356V12.3356H10.465L10.7314 12.2299L10.1783 10.8356ZM11.5693 10.2838H13.0693V8.07518L11.0163 8.88952L11.5693 10.2838ZM11.5693 13.9796V15.4796H13.0693V13.9796H11.5693ZM10.1783 13.9796V12.4796H8.67834V13.9796H10.1783ZM10.1783 15H8.67834V16.5H10.1783V15ZM14.25 12C14.25 13.1732 13.9081 14.1726 13.4311 14.8405C12.952 15.5112 12.4254 15.75 12 15.75V18.75C13.6457 18.75 14.9941 17.8136 15.8723 16.5842C16.7525 15.3519 17.25 13.7263 17.25 12H14.25ZM12 8.25C12.4254 8.25 12.952 8.48884 13.4311 9.15955C13.9081 9.82737 14.25 10.8268 14.25 12H17.25C17.25 10.2737 16.7525 8.64813 15.8723 7.41583C14.9941 6.18641 13.6457 5.25 12 5.25V8.25ZM9.75 12C9.75 10.8268 10.0919 9.82737 10.5689 9.15955C11.048 8.48884 11.5746 8.25 12 8.25V5.25C10.3543 5.25 9.00591 6.18641 8.12775 7.41583C7.24753 8.64813 6.75 10.2737 6.75 12H9.75ZM12 15.75C11.5746 15.75 11.048 15.5112 10.5689 14.8405C10.0919 14.1726 9.75 13.1732 9.75 12H6.75C6.75 13.7263 7.24753 15.3519 8.12775 16.5842C9.00591 17.8136 10.3543 18.75 12 18.75V15.75ZM12.4563 13.9796V15H15.4563V13.9796H12.4563ZM12.6821 15.4796H13.9563V12.4796H12.6821V15.4796ZM11.1821 9V13.9796H14.1821V9H11.1821ZM11.8681 10.5H12.6821V7.5H11.8681V10.5ZM10.6116 11.3809L12.5796 10.3205L11.1566 7.67948L9.18865 8.73983L10.6116 11.3809ZM11.4001 10.0948V10.0603H8.40015V10.0948H11.4001ZM11.5658 10.3785L11.3288 9.63776L8.47148 10.5519L8.70846 11.2926L11.5658 10.3785ZM10.1783 9.33557H10.1371V12.3356H10.1783V9.33557ZM11.0163 8.88952L9.62529 9.44125L10.7314 12.2299L12.1224 11.6782L11.0163 8.88952ZM13.0693 13.9796V10.2838H10.0693V13.9796H13.0693ZM10.1783 15.4796H11.5693V12.4796H10.1783V15.4796ZM11.6783 15V13.9796H8.67834V15H11.6783ZM13.9563 13.5H10.1783V16.5H13.9563V13.5Z" fill="currentColor" mask="url(#path-2-inside-1_4203_675)"/>
    <path d="M2.62599 7.60589C2.5519 7.63658 2.47653 7.66371 2.40015 7.68721L2.40015 6H4.08736C4.06385 6.07638 4.03673 6.15175 4.00604 6.22584C3.87789 6.53522 3.69006 6.81633 3.45327 7.05312C3.21648 7.28991 2.93537 7.47774 2.62599 7.60589Z" fill="currentColor" stroke="currentColor" stroke-width="1.5"/>
    <path d="M21.374 7.60589C21.4481 7.63658 21.5235 7.66371 21.5999 7.68721L21.5999 6H19.9126C19.9361 6.07638 19.9633 6.15175 19.994 6.22584C20.1221 6.53522 20.3099 6.81633 20.5467 7.05312C20.7835 7.28991 21.0646 7.47774 21.374 7.60589Z" fill="currentColor" stroke="currentColor" stroke-width="1.5"/>
    <path d="M2.62599 16.3941C2.5519 16.3634 2.47653 16.3363 2.40015 16.3128L2.40015 18H4.08736C4.06385 17.9236 4.03673 17.8483 4.00604 17.7742C3.87789 17.4648 3.69006 17.1837 3.45327 16.9469C3.21648 16.7101 2.93537 16.5223 2.62599 16.3941Z" fill="currentColor" stroke="currentColor" stroke-width="1.5"/>
    <path d="M21.374 16.3941C21.4481 16.3634 21.5235 16.3363 21.5999 16.3128L21.5999 18H19.9126C19.9361 17.9236 19.9633 17.8483 19.994 17.7742C20.1221 17.4648 20.3099 17.1837 20.5467 16.9469C20.7835 16.7101 21.0646 16.5223 21.374 16.3941Z" fill="currentColor" stroke="currentColor" stroke-width="1.5"/>
</symbol><symbol id="chart" viewBox="0 0 24 24">
    <path d="M10.11 11.1501H7.46005C6.83005 11.1501 6.32007 11.6601 6.32007 12.2901V17.4101H10.11V11.1501V11.1501Z" stroke="#292D32" stroke-width="1.5" stroke-miterlimit="10" stroke-linecap="round" stroke-linejoin="round" fill-opacity="0"/>
    <path d="M12.7613 6.6001H11.2413C10.6113 6.6001 10.1013 7.11011 10.1013 7.74011V17.4001H13.8913V7.74011C13.8913 7.11011 13.3913 6.6001 12.7613 6.6001Z" stroke="#292D32" stroke-width="1.5" stroke-miterlimit="10" stroke-linecap="round" stroke-linejoin="round" fill-opacity="0"/>
    <path d="M16.5482 12.8501H13.8982V17.4001H17.6882V13.9901C17.6782 13.3601 17.1682 12.8501 16.5482 12.8501Z" stroke="#292D32" stroke-width="1.5" stroke-miterlimit="10" stroke-linecap="round" stroke-linejoin="round" fill-opacity="0"/>
    <path d="M9 22H15C20 22 22 20 22 15V9C22 4 20 2 15 2H9C4 2 2 4 2 9V15C2 20 4 22 9 22Z" stroke="#292D32" stroke-width="1.5" stroke-linecap="round" stroke-linejoin="round" fill-opacity="0"/>
</symbol><symbol id="check" viewBox="0 0 24 24">
    <path d="M23.0246 11.9999C23.0246 5.91091 18.0885 0.974854 11.9996 0.974854C5.91067 0.974854 0.974609 5.91091 0.974609 11.9999C0.974609 18.0888 5.91067 23.0249 11.9996 23.0249C18.0885 23.0249 23.0246 18.0888 23.0246 11.9999Z" stroke="white" stroke-width="1.5" stroke-miterlimit="10"/>
    <path d="M16.0546 9.34835L10.7513 14.6517L8.09961 12" stroke="white" stroke-width="1.5" stroke-linecap="round" stroke-linejoin="round"/>
</symbol><symbol id="clipboard" viewBox="0 0 24 24">
    <path d="M11.25 2.25C10.3066 2.25 9.63574 2.91797 9.30469 3.75H3.75V21H9.75V22.5H20.25V10.5H18.75V3.75H13.1953C12.8643 2.91797 12.1934 2.25 11.25 2.25ZM11.25 3.75C11.666 3.75 12 4.08398 12 4.5V5.25H14.25V6.75H8.25V5.25H10.5V4.5C10.5 4.08398 10.834 3.75 11.25 3.75ZM5.25 5.25H6.75V8.25H15.75V5.25H17.25V10.5H9.75V19.5H5.25V5.25ZM11.25 12H18.75V21H11.25V12Z" fill="currentColor"/>
</symbol><symbol id="close" viewBox="0 0 32 32">
    <path d="M9.65723 10.3438L20.9709 21.6575" stroke="currentColor" stroke-width="1.5" stroke-linecap="round" stroke-linejoin="round"/>
    <path d="M9.65723 21.6562L20.9709 10.3425" stroke="currentColor" stroke-width="1.5" stroke-linecap="round" stroke-linejoin="round"/>
</symbol><symbol id="dashboard" viewBox="0 0 24 24">
    <path fill-rule="evenodd" clip-rule="evenodd" d="M16.2856 2H19.5522C20.9037 2 22.0001 3.1059 22.0001 4.47018V7.7641C22.0001 9.12735 20.9037 10.2343 19.5522 10.2343H16.2856C14.933 10.2343 13.8367 9.12735 13.8367 7.7641V4.47018C13.8367 3.1059 14.933 2 16.2856 2Z" stroke="currentColor" fill-opacity="0" stroke-width="1.5" stroke-linecap="round" stroke-linejoin="round"/>
    <path fill-rule="evenodd" clip-rule="evenodd" d="M4.44892 2H7.71449C9.06703 2 10.1634 3.1059 10.1634 4.47018V7.7641C10.1634 9.12735 9.06703 10.2343 7.71449 10.2343H4.44892C3.09638 10.2343 2 9.12735 2 7.7641V4.47018C2 3.1059 3.09638 2 4.44892 2Z" stroke="currentColor" fill-opacity="0" stroke-width="1.5" stroke-linecap="round" stroke-linejoin="round"/>
    <path fill-rule="evenodd" clip-rule="evenodd" d="M4.44892 13.7657H7.71449C9.06703 13.7657 10.1634 14.8716 10.1634 16.2369V19.5298C10.1634 20.8941 9.06703 22 7.71449 22H4.44892C3.09638 22 2 20.8941 2 19.5298V16.2369C2 14.8716 3.09638 13.7657 4.44892 13.7657Z" stroke="currentColor" fill-opacity="0" stroke-width="1.5" stroke-linecap="round" stroke-linejoin="round"/>
    <path fill-rule="evenodd" clip-rule="evenodd" d="M16.2856 13.7657H19.5522C20.9037 13.7657 22.0001 14.8716 22.0001 16.2369V19.5298C22.0001 20.8941 20.9037 22 19.5522 22H16.2856C14.933 22 13.8367 20.8941 13.8367 19.5298V16.2369C13.8367 14.8716 14.933 13.7657 16.2856 13.7657Z" stroke="currentColor" fill-opacity="0" stroke-width="1.5" stroke-linecap="round" stroke-linejoin="round"/>
</symbol><symbol id="delete" viewBox="0 0 24 24">
    <path d="M19.325 9.4682C19.325 9.4682 18.782 16.2032 18.467 19.0402C18.317 20.3952 17.48 21.1892 16.109 21.2142C13.5 21.2612 10.888 21.2642 8.28003 21.2092C6.96103 21.1822 6.13803 20.3782 5.99103 19.0472C5.67403 16.1852 5.13403 9.4682 5.13403 9.4682" stroke="currentColor" stroke-width="1.5" stroke-linecap="round" stroke-linejoin="round" fill-opacity="0"/>
    <path d="M20.7082 6.23969H3.75024" stroke="currentColor" stroke-width="1.5" stroke-linecap="round" stroke-linejoin="round" fill-opacity="0"/>
    <path d="M17.4406 6.23967C16.6556 6.23967 15.9796 5.68467 15.8256 4.91567L15.5826 3.69967C15.4326 3.13867 14.9246 2.75067 14.3456 2.75067H10.1126C9.53358 2.75067 9.02558 3.13867 8.87558 3.69967L8.63258 4.91567C8.47858 5.68467 7.80258 6.23967 7.01758 6.23967" stroke="currentColor" stroke-width="1.5" stroke-linecap="round" stroke-linejoin="round" fill-opacity="0"/>
</symbol><symbol id="down" viewBox="0 0 24 24">
    <path fill-rule="evenodd" clip-rule="evenodd" d="M2.75024 12C2.75024 17.108 6.89124 21.25 12.0002 21.25C17.1082 21.25 21.2502 17.108 21.2502 12C21.2502 6.892 17.1082 2.75 12.0002 2.75C6.89124 2.75 2.75024 6.892 2.75024 12Z" stroke="currentColor" stroke-width="1.5" stroke-linecap="round" stroke-linejoin="round" fill-opacity="0"/>
    <path d="M8.52905 10.5577L12.0001 14.0437L15.4711 10.5577" stroke="currentColor" stroke-width="1.5" stroke-linecap="round" stroke-linejoin="round" fill-opacity="0"/>
</symbol><symbol id="edit" viewBox="0 0 24 24">
    <path d="M15 22.75H9C3.57 22.75 1.25 20.43 1.25 15V9C1.25 3.57 3.57 1.25 9 1.25H11C11.41 1.25 11.75 1.59 11.75 2C11.75 2.41 11.41 2.75 11 2.75H9C4.39 2.75 2.75 4.39 2.75 9V15C2.75 19.61 4.39 21.25 9 21.25H15C19.61 21.25 21.25 19.61 21.25 15V13C21.25 12.59 21.59 12.25 22 12.25C22.41 12.25 22.75 12.59 22.75 13V15C22.75 20.43 20.43 22.75 15 22.75Z" fill="currentColor"/>
    <path d="M8.49935 17.6901C7.88935 17.6901 7.32935 17.4701 6.91935 17.0701C6.42935 16.5801 6.21935 15.8701 6.32935 15.1201L6.75935 12.1101C6.83935 11.5301 7.21935 10.7801 7.62935 10.3701L15.5093 2.49006C17.4993 0.500059 19.5193 0.500059 21.5093 2.49006C22.5993 3.58006 23.0893 4.69006 22.9893 5.80006C22.8993 6.70006 22.4193 7.58006 21.5093 8.48006L13.6293 16.3601C13.2193 16.7701 12.4693 17.1501 11.8893 17.2301L8.87935 17.6601C8.74935 17.6901 8.61935 17.6901 8.49935 17.6901ZM16.5693 3.55006L8.68935 11.4301C8.49935 11.6201 8.27935 12.0601 8.23935 12.3201L7.80935 15.3301C7.76935 15.6201 7.82935 15.8601 7.97935 16.0101C8.12935 16.1601 8.36935 16.2201 8.65935 16.1801L11.6693 15.7501C11.9293 15.7101 12.3793 15.4901 12.5593 15.3001L20.4393 7.42006C21.0893 6.77006 21.4293 6.19006 21.4793 5.65006C21.5393 5.00006 21.1993 4.31006 20.4393 3.54006C18.8393 1.94006 17.7393 2.39006 16.5693 3.55006Z" fill="currentColor"/>
    <path d="M19.8496 9.82978C19.7796 9.82978 19.7096 9.81978 19.6496 9.79978C17.0196 9.05978 14.9296 6.96978 14.1896 4.33978C14.0796 3.93978 14.3096 3.52978 14.7096 3.40978C15.1096 3.29978 15.5196 3.52978 15.6296 3.92978C16.2296 6.05978 17.9196 7.74978 20.0496 8.34978C20.4496 8.45978 20.6796 8.87978 20.5696 9.27978C20.4796 9.61978 20.1796 9.82978 19.8496 9.82978Z" fill="currentColor"/>
</symbol><symbol id="email" viewBox="0 0 24 24">
    <path fill-rule="evenodd" clip-rule="evenodd" d="M8.80965 3.3303C10.9111 2.8899 13.0889 2.8899 15.1904 3.3303L15.6299 3.42243C17.4434 3.80248 19.0198 4.76242 20.1306 6.09162C20.3119 6.30858 20.2509 6.62141 20.0114 6.78002L13.3743 11.1751C12.5491 11.7215 11.4509 11.7215 10.6257 11.1751L3.98859 6.78002C3.74908 6.62142 3.68812 6.30859 3.86944 6.09162C4.98024 4.76243 6.55658 3.80248 8.37005 3.42243L8.80965 3.3303ZM3.32486 8.18534C3.04693 8.0013 2.65951 8.10681 2.55429 8.41192C2.49553 8.58232 2.44295 8.75548 2.39682 8.93119C1.86773 10.9465 1.86773 13.0536 2.39682 15.0688C3.12141 17.8286 5.43518 19.9625 8.37005 20.5776L8.80965 20.6697C10.9111 21.1101 13.0889 21.1101 15.1904 20.6697L15.6299 20.5776C18.5648 19.9625 20.8786 17.8286 21.6032 15.0688C22.1323 13.0535 22.1323 10.9465 21.6032 8.9312C21.557 8.75548 21.5045 8.58231 21.4457 8.4119C21.3405 8.1068 20.9531 8.00129 20.6751 8.18533L14.2904 12.4132C12.9152 13.3239 11.0848 13.3239 9.70953 12.4132L3.32486 8.18534Z" fill="currentColor"/>
</symbol><symbol id="error" viewBox="0 0 24 24">
    <path d="M12 9V14" stroke="currentColor" stroke-width="1.5" stroke-linecap="round" stroke-linejoin="round" fill-opacity="0"/>
    <path d="M12.0001 21.41H5.94005C2.47005 21.41 1.02005 18.93 2.70005 15.9L5.82006 10.28L8.76006 5.00003C10.5401 1.79003 13.4601 1.79003 15.2401 5.00003L18.1801 10.29L21.3001 15.91C22.9801 18.94 21.5201 21.42 18.0601 21.42H12.0001V21.41Z" stroke="currentColor" stroke-width="1.5" stroke-linecap="round" stroke-linejoin="round" fill-opacity="0"/>
    <path d="M11.9945 17H12.0035" stroke="currentColor" fill-opacity="0" stroke-width="2" stroke-linecap="round" stroke-linejoin="round"/>
</symbol><symbol id="exit" viewBox="0 0 23 23">
    <path d="M18.57 4.428a10 10 0 1 1-14.14 0M11.499 1.5v8.889" stroke="currentColor" stroke-linecap="round" stroke-linejoin="round" stroke-width="3" fill-opacity="0"/>
</symbol><symbol id="eye" viewBox="0 0 24 24">
    <path d="M15.5799 11.9999C15.5799 13.9799 13.9799 15.5799 11.9999 15.5799C10.0199 15.5799 8.41992 13.9799 8.41992 11.9999C8.41992 10.0199 10.0199 8.41992 11.9999 8.41992C13.9799 8.41992 15.5799 10.0199 15.5799 11.9999Z" stroke="currentColor" stroke-width="1.5" stroke-linecap="round" stroke-linejoin="round" fill-opacity="0"/>
    <path d="M11.9998 20.2703C15.5298 20.2703 18.8198 18.1903 21.1098 14.5903C22.0098 13.1803 22.0098 10.8103 21.1098 9.40034C18.8198 5.80034 15.5298 3.72034 11.9998 3.72034C8.46984 3.72034 5.17984 5.80034 2.88984 9.40034C1.98984 10.8103 1.98984 13.1803 2.88984 14.5903C5.17984 18.1903 8.46984 20.2703 11.9998 20.2703Z" stroke="currentColor" stroke-width="1.5" stroke-linecap="round" stroke-linejoin="round" fill-opacity="0"/>
</symbol><symbol id="flag" viewBox="0 0 24 24">
    <path d="M6.75 3C5.5095 3 4.5 4.0095 4.5 5.25C4.5 6.22621 5.12906 7.0516 6 7.3623V8.47852V17.4053V20.2676C6 20.6726 6.32742 21 6.73242 21H6.76758C7.17258 21 7.5 20.6726 7.5 20.2676V16.6714C7.75103 16.3798 8.35382 15.7852 10.084 15.7852C11.002 15.7852 11.7528 16.1053 12.5493 16.4443C13.3271 16.7758 14.1314 17.1182 15.0659 17.1182C16.8352 17.1182 18.037 16.1885 18.5508 15.791L18.665 15.7046C19.0783 15.4053 19.5 14.997 19.5 14.25V8.00684C19.5 7.32584 18.9164 6.75 18.2241 6.75C17.8529 6.75 17.5803 6.96495 17.2061 7.2627C16.7096 7.6557 15.9607 8.25 15.0659 8.25C14.4547 8.25 13.8583 7.9648 13.166 7.6333C12.3028 7.2193 11.3238 6.75 10.0825 6.75C9.23119 6.75 8.56627 6.89125 8.03467 7.09277C8.6168 6.68564 9 6.01259 9 5.25C9 4.0095 7.9905 3 6.75 3ZM6.75 4.5C7.164 4.5 7.5 4.83675 7.5 5.25C7.5 5.66325 7.164 6 6.75 6C6.336 6 6 5.66325 6 5.25C6 4.83675 6.336 4.5 6.75 4.5ZM10.0825 8.25C10.984 8.25 11.7288 8.60735 12.5186 8.98535C13.3023 9.36185 14.1134 9.75 15.0659 9.75C16.3822 9.75 17.3685 9.04086 17.9985 8.54736V14.2998C17.9978 14.3028 17.9647 14.3589 17.7817 14.4917L17.6323 14.606C17.2071 14.9345 16.3222 15.6182 15.0659 15.6182C14.4374 15.6182 13.835 15.3622 13.1367 15.0645C12.2795 14.6985 11.3073 14.2837 10.0825 14.2837C8.91852 14.2837 8.0895 14.5185 7.5 14.8125V9.271C7.75875 8.929 8.34927 8.25 10.0825 8.25Z" fill="currentColor"/>
</symbol><symbol id="google" viewBox="0 0 48 48">
    <g clip-path="url(#clip0_17_40)">
        <path d="M47.532 24.5528C47.532 22.9214 47.3997 21.2811 47.1175 19.6761H24.48V28.9181H37.4434C36.9055 31.8988 35.177 34.5356 32.6461 36.2111V42.2078H40.3801C44.9217 38.0278 47.532 31.8547 47.532 24.5528Z" fill="#4285F4"/>
        <path d="M24.48 48.0016C30.9529 48.0016 36.4116 45.8764 40.3888 42.2078L32.6549 36.2111C30.5031 37.675 27.7252 38.5039 24.4888 38.5039C18.2275 38.5039 12.9187 34.2798 11.0139 28.6006H3.03296V34.7825C7.10718 42.8868 15.4056 48.0016 24.48 48.0016Z" fill="#34A853"/>
        <path d="M11.0051 28.6006C9.99973 25.6199 9.99973 22.3922 11.0051 19.4115V13.2296H3.03298C-0.371021 20.0112 -0.371021 28.0009 3.03298 34.7825L11.0051 28.6006Z" fill="#FBBC04"/>
        <path d="M24.48 9.49932C27.9016 9.44641 31.2086 10.7339 33.6866 13.0973L40.5387 6.24523C36.2 2.17101 30.4414 -0.068932 24.48 0.00161733C15.4055 0.00161733 7.10718 5.11644 3.03296 13.2296L11.005 19.4115C12.901 13.7235 18.2187 9.49932 24.48 9.49932Z" fill="#EA4335"/>
    </g>
    
</symbol><symbol id="hand_shake" viewBox="0 0 24 24">
    <path d="M14.4844 5.22664C14.0684 5.22957 13.6553 5.25008 13.2188 5.36727C12.7822 5.48446 12.3457 5.67196 11.8828 5.97664C11.3086 5.63973 10.752 5.36141 10.2188 5.29696C9.55664 5.21493 8.94141 5.25887 8.22656 5.27352C7.37988 5.2911 6.82617 5.72469 5.92969 6.07039C5.0332 6.4161 3.87891 6.75008 2.25 6.75008H1.5V13.9688L1.92188 14.1798L3.30469 14.8595L8.22656 20.3438L8.25 20.3673C8.8125 20.9239 9.57129 21.0616 10.2422 21.0235C10.9131 20.9854 11.543 20.7891 12.0469 20.4845C13.1543 19.8165 16.1719 17.7188 16.1719 17.7188L16.2422 17.672L16.2891 17.6251C16.6465 17.2706 16.8252 16.837 16.9453 16.3829L19.8281 14.9298L21.9844 14.2032L22.5 14.0391V6.75008H21.75C20.124 6.75008 18.9668 6.39852 18.0703 6.04696C17.1738 5.69539 16.6289 5.26766 15.7734 5.25008C15.3164 5.24129 14.9004 5.22371 14.4844 5.22664ZM14.5078 6.72664C14.8447 6.72371 15.2344 6.74129 15.7266 6.75008C15.8057 6.75301 16.5264 7.06063 17.5312 7.45321C18.3809 7.78719 19.5615 8.08309 21 8.17977V12.961L19.2656 13.547H19.2188L19.1719 13.5704L16.8984 14.7188C16.7725 14.3761 16.5996 14.0597 16.3359 13.7813L16.2891 13.711L13.1016 9.79696L12.6328 9.21102L12.0469 9.67977L10.0312 11.3204C9.35449 11.7891 8.80664 11.6544 8.25 11.3907C8.08887 11.3145 8.09766 11.2911 7.96875 11.2032L11.3906 8.36727L11.4375 8.32039C12.4541 7.31258 13.0781 6.96395 13.6172 6.82039C13.8867 6.74715 14.1709 6.72957 14.5078 6.72664ZM9.28125 6.75008C9.56836 6.74422 9.80859 6.74715 10.0312 6.77352C10.2275 6.79696 10.4502 6.96395 10.6406 7.03133C10.5645 7.10164 10.5088 7.14266 10.4297 7.21883C10.4121 7.23641 10.4004 7.24813 10.3828 7.26571L6.28125 10.6641L5.64844 11.1798L6.21094 11.7657C6.21094 11.7657 6.75293 12.3516 7.59375 12.7501C8.43457 13.1485 9.73242 13.3741 10.8984 12.5626L10.9453 12.5157L12.3984 11.3204L15.1641 14.7188L15.1875 14.7657L15.2109 14.7891C15.7061 15.2784 15.6943 16.0489 15.2109 16.547C15.2051 16.5528 15.2168 16.5645 15.2109 16.5704C15.2051 16.5733 15.1055 16.6319 15.0938 16.6407L14.1094 15.3048L12.8906 16.1954L13.8516 17.4845C13.4619 17.7481 13.2861 17.8858 12.8672 18.1641L11.8594 16.8048L10.6406 17.6954L11.6016 18.9845C11.5166 19.0372 11.3408 19.1544 11.2734 19.1954C11.0361 19.3389 10.5791 19.5001 10.1719 19.5235C9.78809 19.544 9.49512 19.4561 9.35156 19.336L9.32812 19.3126L4.3125 13.7579L4.21875 13.6407L3 13.0313V8.17977C4.43262 8.08602 5.62207 7.80184 6.46875 7.47664C7.4707 7.09285 8.18555 6.77645 8.27344 6.77352C8.65723 6.76473 8.99414 6.75594 9.28125 6.75008Z" fill="currentColor"/>
</symbol><symbol id="help" viewBox="0 0 24 24">
    <path d="M17 18.4301H13L8.54999 21.39C7.88999 21.83 7 21.3601 7 20.5601V18.4301C4 18.4301 2 16.4301 2 13.4301V7.42999C2 4.42999 4 2.42999 7 2.42999H17C20 2.42999 22 4.42999 22 7.42999V13.4301C22 16.4301 20 18.4301 17 18.4301Z" stroke="currentColor" fill-opacity="0" stroke-width="1.5" stroke-miterlimit="10" stroke-linecap="round" stroke-linejoin="round"/>
    <path d="M12.0001 11.36V11.15C12.0001 10.47 12.4201 10.11 12.8401 9.82001C13.2501 9.54001 13.66 9.18002 13.66 8.52002C13.66 7.60002 12.9201 6.85999 12.0001 6.85999C11.0801 6.85999 10.3401 7.60002 10.3401 8.52002" stroke="currentColor" fill-opacity="0" stroke-width="1.5" stroke-linecap="round" stroke-linejoin="round"/>
    <path d="M11.9955 13.75H12.0045" stroke="currentColor" fill-opacity="0" stroke-width="1.5" stroke-linecap="round" stroke-linejoin="round"/>
</symbol><symbol id="image" viewBox="0 0 24 24">
    <path fill-opacity="0" d="M9 22H15C20 22 22 20 22 15V9C22 4 20 2 15 2H9C4 2 2 4 2 9V15C2 20 4 22 9 22Z" stroke="currentColor" stroke-width="1.5" stroke-linecap="round" stroke-linejoin="round"/>
    <path fill-opacity="0" d="M9 10C10.1046 10 11 9.10457 11 8C11 6.89543 10.1046 6 9 6C7.89543 6 7 6.89543 7 8C7 9.10457 7.89543 10 9 10Z" stroke="currentColor" stroke-width="1.5" stroke-linecap="round" stroke-linejoin="round"/>
    <path fill-opacity="0" d="M2.67004 18.9501L7.60004 15.6401C8.39004 15.1101 9.53004 15.1701 10.24 15.7801L10.57 16.0701C11.35 16.7401 12.61 16.7401 13.39 16.0701L17.55 12.5001C18.33 11.8301 19.59 11.8301 20.37 12.5001L22 13.9001" stroke="currentColor" stroke-width="1.5" stroke-linecap="round" stroke-linejoin="round"/>
</symbol><symbol id="info" viewBox="0 0 24 24">
    <path d="M12 22C17.5 22 22 17.5 22 12C22 6.5 17.5 2 12 2C6.5 2 2 6.5 2 12C2 17.5 6.5 22 12 22Z" stroke="currentColor" stroke-width="1.5" stroke-linecap="round" stroke-linejoin="round" fill-opacity="0"/>
    <path d="M12 8V13" stroke="currentColor" stroke-width="1.5" stroke-linecap="round" stroke-linejoin="round" fill-opacity="0"/>
    <path d="M11.9945 16H12.0035" stroke="currentColor" stroke-width="2" stroke-linecap="round" stroke-linejoin="round" fill-opacity="0"/>
</symbol><symbol id="instagram" viewBox="0 0 24 24">
    <path d="M12.0002 8.75053C10.2053 8.75053 8.75018 10.2056 8.75018 12.0005C8.75018 13.7955 10.2053 15.2505 12.0002 15.2505C13.7951 15.2505 15.2502 13.7955 15.2502 12.0005C15.2502 10.2056 13.7951 8.75053 12.0002 8.75053Z" fill="currentColor"/>
    <path fill-rule="evenodd" clip-rule="evenodd" d="M6.76972 3.082C10.2178 2.69662 13.7825 2.69662 17.2307 3.082C19.1291 3.29418 20.6603 4.78995 20.8831 6.69501C21.2954 10.22 21.2954 13.7811 20.8831 17.3061C20.6603 19.2111 19.1291 20.7069 17.2307 20.9191C13.7825 21.3044 10.2178 21.3044 6.76972 20.9191C4.87132 20.7069 3.34013 19.2111 3.11732 17.3061C2.70504 13.7811 2.70504 10.22 3.11732 6.69501C3.34013 4.78995 4.87132 3.29418 6.76972 3.082ZM17.0002 6.00053C16.4479 6.00053 16.0002 6.44825 16.0002 7.00053C16.0002 7.55282 16.4479 8.00053 17.0002 8.00053C17.5525 8.00053 18.0002 7.55282 18.0002 7.00053C18.0002 6.44825 17.5525 6.00053 17.0002 6.00053ZM7.25018 12.0005C7.25018 9.37718 9.37683 7.25053 12.0002 7.25053C14.6235 7.25053 16.7502 9.37718 16.7502 12.0005C16.7502 14.6239 14.6235 16.7505 12.0002 16.7505C9.37683 16.7505 7.25018 14.6239 7.25018 12.0005Z" fill="currentColor"/>
</symbol><symbol id="invoice" viewBox="0 0 20 20">
    <path d="M13.1501 1.6665H6.85008C3.70008 1.6665 2.91675 2.50817 2.91675 5.8665V15.2498C2.91675 17.4665 4.13341 17.9915 5.60842 16.4082L5.61675 16.3998C6.30008 15.6748 7.34175 15.7332 7.93342 16.5248L8.77508 17.6498C9.45008 18.5415 10.5417 18.5415 11.2167 17.6498L12.0584 16.5248C12.6584 15.7248 13.7001 15.6665 14.3834 16.3998C15.8667 17.9832 17.0751 17.4582 17.0751 15.2415V5.8665C17.0834 2.50817 16.3001 1.6665 13.1501 1.6665ZM12.2917 8.95817H7.70842C7.36675 8.95817 7.08342 8.67484 7.08342 8.33317C7.08342 7.9915 7.36675 7.70817 7.70842 7.70817H12.2917C12.6334 7.70817 12.9167 7.9915 12.9167 8.33317C12.9167 8.67484 12.6334 8.95817 12.2917 8.95817Z" fill="currentColor"/>
</symbol><symbol id="link" viewBox="0 0 24 24">
    <path fill-opacity="0" d="M14.99 17.5H16.5C19.52 17.5 22 15.03 22 12C22 8.98 19.53 6.5 16.5 6.5H14.99" stroke="currentColor" stroke-width="1.5" stroke-linecap="round" stroke-linejoin="round"/>
    <path fill-opacity="0" d="M9 6.5H7.5C4.47 6.5 2 8.97 2 12C2 15.02 4.47 17.5 7.5 17.5H9" stroke="currentColor" stroke-width="1.5" stroke-linecap="round" stroke-linejoin="round"/>
    <path fill-opacity="0" d="M8 12H16" stroke="currentColor" stroke-width="1.5" stroke-linecap="round" stroke-linejoin="round"/>
</symbol><symbol id="lock" viewBox="0 0 24 24">
    <path d="M9 11V10C9 8.34 9.5 7 12 7C14.5 7 15 8.34 15 10V11" stroke="currentColor" fill-opacity="0" stroke-width="1.5" stroke-linecap="round" stroke-linejoin="round"/>
    <path d="M12 14.6C12.3314 14.6 12.6 14.3314 12.6 14C12.6 13.6687 12.3314 13.4 12 13.4C11.6686 13.4 11.4 13.6687 11.4 14C11.4 14.3314 11.6686 14.6 12 14.6Z" stroke="currentColor" fill-opacity="0" stroke-width="1.5" stroke-linecap="round" stroke-linejoin="round"/>
    <path d="M14.5 17H9.5C7.5 17 7 16.5 7 14.5V13.5C7 11.5 7.5 11 9.5 11H14.5C16.5 11 17 11.5 17 13.5V14.5C17 16.5 16.5 17 14.5 17Z" stroke="currentColor" fill-opacity="0" stroke-width="1.5" stroke-linecap="round" stroke-linejoin="round"/>
    <path d="M12 22C17.5228 22 22 17.5228 22 12C22 6.47715 17.5228 2 12 2C6.47715 2 2 6.47715 2 12C2 17.5228 6.47715 22 12 22Z" stroke="currentColor" fill-opacity="0" stroke-width="1.5" stroke-linecap="round" stroke-linejoin="round"/>
</symbol><symbol id="logo_outline" viewBox="0 0 83 82">
    <rect x="0.5" width="82" height="82" rx="41" fill="#4F1DED"/>
    <path d="M19.196 23.9338C19.2583 26.1017 19.1137 28.1251 19.4192 30.0779C19.8646 32.9309 21.6224 34.8908 24.366 35.8837C25.5446 36.3102 26.7384 36.7027 27.9451 37.0376C28.5585 37.2079 28.7629 37.4817 28.7653 38.1291C28.79 44.0747 28.8546 50.0203 28.9051 55.9657C28.9345 59.3817 30.9402 62.1394 34.1798 63.2005C36.0539 63.8149 37.9316 64.4222 39.9103 65.0675C39.9185 64.5212 39.9361 64.0533 39.9314 63.5847C39.848 54.4383 39.7082 45.292 39.7058 36.1457C39.7058 33.1729 37.5144 29.7959 34.3654 28.8454C29.6137 27.4095 24.9124 25.7962 20.19 24.2581C19.9186 24.17 19.6484 24.0818 19.196 23.9338Z" fill="white"/>
    <path d="M63.8253 23.9338C63.7632 26.1017 63.9075 28.1251 63.6021 30.0779C63.157 32.9309 61.3989 34.8908 58.6554 35.8837C57.4768 36.3102 56.283 36.7027 55.0762 37.0376C54.4629 37.2079 54.2584 37.4817 54.2561 38.1291C54.2314 44.0747 54.1668 50.0203 54.1163 55.9657C54.0869 59.3817 52.0812 62.1394 48.8416 63.2005C46.9675 63.8149 45.0898 64.4222 43.1111 65.0675C43.1029 64.5212 43.0853 64.0533 43.09 63.5847C43.1734 54.4383 43.3132 45.292 43.3156 36.1457C43.3156 33.1729 45.507 29.7959 48.656 28.8454C53.4101 27.4095 58.1101 25.7962 62.8327 24.2581C63.1016 24.17 63.3731 24.0818 63.8253 23.9338Z" fill="white"/>
    <path d="M41.3769 28.534C44.5917 28.534 47.1979 25.9279 47.1979 22.713C47.1979 19.4982 44.5917 16.892 41.3769 16.892C38.162 16.892 35.5558 19.4982 35.5558 22.713C35.5558 25.9279 38.162 28.534 41.3769 28.534Z" fill="white"/>
</symbol><symbol id="map" viewBox="0 0 24 24">
    <path d="M2.28998 7.77998V17.51C2.28998 19.41 3.63998 20.19 5.27998 19.25L7.62998 17.91C8.13998 17.62 8.98998 17.59 9.51998 17.86L14.77 20.49C15.3 20.75 16.15 20.73 16.66 20.44L20.99 17.96C21.54 17.64 22 16.86 22 16.22V6.48998C22 4.58998 20.65 3.80998 19.01 4.74998L16.66 6.08998C16.15 6.37998 15.3 6.40998 14.77 6.13998L9.51998 3.51998C8.98998 3.25998 8.13998 3.27998 7.62998 3.56998L3.29998 6.04998C2.73998 6.36998 2.28998 7.14998 2.28998 7.77998Z" stroke="currentColor" stroke-width="1.5" stroke-linecap="round" stroke-linejoin="round" fill-opacity="0"/>
    <path d="M8.56 4V17" stroke="currentColor" stroke-width="1.5" stroke-linecap="round" stroke-linejoin="round" fill-opacity="0"/>
    <path d="M15.73 6.62012V20.0001" stroke="currentColor" stroke-width="1.5" stroke-linecap="round" stroke-linejoin="round" fill-opacity="0"/>
</symbol><symbol id="menu" viewBox="0 0 24 24">
    <path d="M3 7H21" stroke="currentColor" stroke-width="1.5" stroke-linecap="round"/>
    <path d="M3 12H21" stroke="currentColor" stroke-width="1.5" stroke-linecap="round"/>
    <path d="M3 17H21" stroke="currentColor" stroke-width="1.5" stroke-linecap="round"/>
</symbol><symbol id="message" viewBox="0 0 24 24">
    <path d="M22 6.25V11.35C22 12.62 21.58 13.69 20.83 14.43C20.09 15.18 19.02 15.6 17.75 15.6V17.41C17.75 18.09 16.99 18.5 16.43 18.12L15.46 17.48C15.55 17.17 15.59 16.83 15.59 16.47V12.4C15.59 10.36 14.23 9 12.19 9H5.39999C5.25999 9 5.13 9.01002 5 9.02002V6.25C5 3.7 6.7 2 9.25 2H17.75C20.3 2 22 3.7 22 6.25Z" stroke="currentColor" stroke-width="1.5" stroke-miterlimit="10" stroke-linecap="round" stroke-linejoin="round"/>
    <path d="M15.59 12.4V16.47C15.59 16.83 15.55 17.17 15.46 17.48C15.09 18.95 13.87 19.87 12.19 19.87H9.47L6.45 21.88C6 22.19 5.39999 21.86 5.39999 21.32V19.87C4.37999 19.87 3.53 19.53 2.94 18.94C2.34 18.34 2 17.49 2 16.47V12.4C2 10.5 3.18 9.19002 5 9.02002C5.13 9.01002 5.25999 9 5.39999 9H12.19C14.23 9 15.59 10.36 15.59 12.4Z" stroke="currentColor" stroke-width="1.5" stroke-miterlimit="10" stroke-linecap="round" stroke-linejoin="round"/>
</symbol><symbol id="note" viewBox="0 0 24 24">
    <path d="M15 22.75H9C3.57 22.75 1.25 20.43 1.25 15V9C1.25 3.57 3.57 1.25 9 1.25H14C14.41 1.25 14.75 1.59 14.75 2C14.75 2.41 14.41 2.75 14 2.75H9C4.39 2.75 2.75 4.39 2.75 9V15C2.75 19.61 4.39 21.25 9 21.25H15C19.61 21.25 21.25 19.61 21.25 15V10C21.25 9.59 21.59 9.25 22 9.25C22.41 9.25 22.75 9.59 22.75 10V15C22.75 20.43 20.43 22.75 15 22.75Z" fill="currentColor"/>
    <path d="M22 10.75H18C14.58 10.75 13.25 9.41999 13.25 5.99999V1.99999C13.25 1.69999 13.43 1.41999 13.71 1.30999C13.99 1.18999 14.31 1.25999 14.53 1.46999L22.53 9.46999C22.74 9.67999 22.81 10.01 22.69 10.29C22.57 10.57 22.3 10.75 22 10.75ZM14.75 3.80999V5.99999C14.75 8.57999 15.42 9.24999 18 9.24999H20.19L14.75 3.80999Z" fill="currentColor"/>
</symbol><symbol id="people" viewBox="0 0 24 24">
    <path d="M18 7.16C17.94 7.15 17.87 7.15 17.81 7.16C16.43 7.11 15.33 5.98 15.33 4.58C15.33 3.15 16.48 2 17.91 2C19.34 2 20.49 3.16 20.49 4.58C20.48 5.98 19.38 7.11 18 7.16Z" stroke="#292D32" stroke-width="1.5" stroke-linecap="round" stroke-linejoin="round" fill-opacity="0"/>
    <path d="M16.9699 14.44C18.3399 14.67 19.8499 14.43 20.9099 13.72C22.3199 12.78 22.3199 11.24 20.9099 10.3C19.8399 9.59004 18.3099 9.35003 16.9399 9.59003" stroke="#292D32" stroke-width="1.5" stroke-linecap="round" stroke-linejoin="round" fill-opacity="0"/>
    <path d="M5.96998 7.16C6.02998 7.15 6.09998 7.15 6.15998 7.16C7.53998 7.11 8.63998 5.98 8.63998 4.58C8.63998 3.15 7.48998 2 6.05998 2C4.62998 2 3.47998 3.16 3.47998 4.58C3.48998 5.98 4.58998 7.11 5.96998 7.16Z" stroke="#292D32" stroke-width="1.5" stroke-linecap="round" stroke-linejoin="round" fill-opacity="0"/>
    <path d="M6.99994 14.44C5.62994 14.67 4.11994 14.43 3.05994 13.72C1.64994 12.78 1.64994 11.24 3.05994 10.3C4.12994 9.59004 5.65994 9.35003 7.02994 9.59003" stroke="#292D32" stroke-width="1.5" stroke-linecap="round" stroke-linejoin="round" fill-opacity="0"/>
    <path d="M12 14.63C11.94 14.62 11.87 14.62 11.81 14.63C10.43 14.58 9.32996 13.45 9.32996 12.05C9.32996 10.62 10.48 9.46997 11.91 9.46997C13.34 9.46997 14.49 10.63 14.49 12.05C14.48 13.45 13.38 14.59 12 14.63Z" stroke="#292D32" stroke-width="1.5" stroke-linecap="round" stroke-linejoin="round" fill-opacity="0"/>
    <path d="M9.08997 17.78C7.67997 18.72 7.67997 20.26 9.08997 21.2C10.69 22.27 13.31 22.27 14.91 21.2C16.32 20.26 16.32 18.72 14.91 17.78C13.32 16.72 10.69 16.72 9.08997 17.78Z" stroke="#292D32" stroke-width="1.5" stroke-linecap="round" stroke-linejoin="round" fill-opacity="0"/>
</symbol><symbol id="phone" viewBox="0 0 24 24">
    <path d="M18.0837 24C16.8223 24 15.494 23.6986 14.1209 23.1181C12.7814 22.5488 11.4307 21.7674 10.1135 20.8186C8.80744 19.8586 7.54605 18.787 6.35163 17.6149C5.16837 16.4205 4.09674 15.1591 3.14791 13.8642C2.18791 12.5247 1.41767 11.1851 0.870698 9.89023C0.290233 8.50605 0 7.16651 0 5.90512C0 5.03442 0.156279 4.20837 0.457674 3.43814C0.770233 2.64558 1.27256 1.90884 1.95349 1.27256C2.81302 0.424186 3.79535 0 4.84465 0C5.28 0 5.72651 0.100465 6.10605 0.27907C6.5414 0.48 6.90977 0.781395 7.17767 1.18326L9.76744 4.83349C10.0019 5.15721 10.1805 5.46977 10.3033 5.78233C10.4484 6.11721 10.5265 6.45209 10.5265 6.77581C10.5265 7.2 10.4037 7.61302 10.1693 8.00372C10.0019 8.30512 9.74512 8.62884 9.4214 8.95256L8.66233 9.74512C8.67349 9.7786 8.68465 9.80093 8.69581 9.82326C8.82977 10.0577 9.09767 10.4595 9.61116 11.0623C10.1581 11.6874 10.6716 12.2567 11.1851 12.7814C11.8437 13.4288 12.3907 13.9423 12.9042 14.3665C13.5405 14.9023 13.9535 15.1702 14.1991 15.293L14.9916 14.5451C15.3377 14.1991 15.6726 13.9423 15.9963 13.7749C16.6102 13.3953 17.3916 13.3284 18.173 13.6521C18.4633 13.7749 18.7758 13.9423 19.1107 14.1767L22.8167 16.8112C23.2298 17.0902 23.5312 17.4474 23.7098 17.8716C23.8772 18.2958 23.9553 18.6865 23.9553 19.0772C23.9553 19.613 23.8326 20.1488 23.5981 20.6512C23.3637 21.1535 23.0735 21.5888 22.7051 21.9907C22.0688 22.694 21.3767 23.1963 20.573 23.52C19.8028 23.8326 18.9656 24 18.0837 24ZM4.84465 1.67442C4.2307 1.67442 3.6614 1.94233 3.11442 2.47814C2.60093 2.95814 2.24372 3.48279 2.02047 4.05209C1.78605 4.63256 1.67442 5.24651 1.67442 5.90512C1.67442 6.94326 1.92 8.0707 2.41116 9.23163C2.91349 10.4149 3.61674 11.6428 4.50977 12.8707C5.40279 14.0986 6.41861 15.293 7.53488 16.4205C8.65116 17.5256 9.85674 18.5526 11.0958 19.4567C12.3014 20.3386 13.5405 21.053 14.7684 21.5665C16.6772 22.3814 18.4633 22.5712 19.9367 21.9572C20.506 21.7228 21.0084 21.3656 21.466 20.8521C21.7228 20.573 21.9237 20.2716 22.0912 19.9144C22.2251 19.6353 22.2921 19.3451 22.2921 19.0549C22.2921 18.8763 22.2586 18.6977 22.1693 18.4967C22.1358 18.4298 22.0688 18.307 21.8567 18.1619L18.1507 15.5274C17.9274 15.3712 17.7265 15.2595 17.5367 15.1814C17.2912 15.0809 17.1907 14.9805 16.8112 15.2149C16.5879 15.3265 16.387 15.494 16.1637 15.7172L15.3154 16.5544C14.88 16.9786 14.2102 17.0791 13.6967 16.8893L13.3954 16.7553C12.9377 16.5098 12.4019 16.1302 11.8102 15.6279C11.2744 15.1702 10.694 14.6344 9.9907 13.9423C9.44372 13.3842 8.89675 12.7926 8.32744 12.134C7.80279 11.52 7.42326 10.9953 7.18884 10.56L7.05488 10.2251C6.98791 9.96837 6.96558 9.82326 6.96558 9.66698C6.96558 9.26512 7.1107 8.90791 7.38977 8.62884L8.22698 7.75814C8.45023 7.53488 8.61767 7.32279 8.7293 7.13302C8.81861 6.98791 8.85209 6.86512 8.85209 6.75349C8.85209 6.66419 8.81861 6.53023 8.76279 6.39628C8.68465 6.21767 8.56186 6.01674 8.40558 5.80465L5.81581 2.14326C5.70419 1.98698 5.57023 1.87535 5.40279 1.79721C5.22419 1.71907 5.03442 1.67442 4.84465 1.67442Z" fill="currentColor"/>
    <path d="M19.2557 9.48862C18.798 9.48862 18.4185 9.10909 18.4185 8.65141C18.4185 8.24955 18.0166 7.41234 17.3468 6.69792C16.6882 5.99467 15.9626 5.58165 15.3487 5.58165C14.891 5.58165 14.5115 5.20211 14.5115 4.74444C14.5115 4.28676 14.891 3.90723 15.3487 3.90723C16.4315 3.90723 17.5701 4.48769 18.5636 5.54816C19.4901 6.54165 20.0929 7.75839 20.0929 8.65141C20.0929 9.10909 19.7133 9.48862 19.2557 9.48862Z" fill="currentColor"/>
    <path d="M23.1626 9.48837C22.705 9.48837 22.3254 9.10884 22.3254 8.65116C22.3254 4.8 19.1998 1.67442 15.3487 1.67442C14.891 1.67442 14.5115 1.29488 14.5115 0.837209C14.5115 0.379535 14.891 0 15.3487 0C20.1152 0 23.9998 3.88465 23.9998 8.65116C23.9998 9.10884 23.6203 9.48837 23.1626 9.48837Z" fill="currentColor"/>
</symbol><symbol id="piechart" viewBox="0 0 24 24">
    <path d="M18.32 11.9999C20.92 11.9999 22 10.9999 21.04 7.71994C20.39 5.50994 18.49 3.60994 16.28 2.95994C13 1.99994 12 3.07994 12 5.67994V8.55994C12 10.9999 13 11.9999 15 11.9999H18.32Z" stroke="#292D32" stroke-width="1.5" stroke-linecap="round" stroke-linejoin="round" fill-opacity="0"/>
    <path d="M19.9999 14.7C19.0699 19.33 14.6299 22.69 9.57993 21.87C5.78993 21.26 2.73993 18.21 2.11993 14.42C1.30993 9.39001 4.64993 4.95001 9.25993 4.01001" stroke="#292D32" stroke-width="1.5" stroke-linecap="round" stroke-linejoin="round" fill-opacity="0"/>
</symbol><symbol id="post" viewBox="0 0 23 23">
    <g clip-path="url(#clip0_216_31548)">
        <path d="M17.2977 11.9805C16.794 11.9805 16.3819 12.3926 16.3819 12.8963V17.6771C16.3819 18.1808 15.9698 18.5929 15.4661 18.5929H6.3076C5.80388 18.5929 5.39175 18.1808 5.39175 17.6771V8.31712C5.39175 7.8134 5.80388 7.40127 6.3076 7.40127H10.8868C11.3905 7.40127 11.8027 6.98914 11.8027 6.48543C11.8027 5.98171 11.3905 5.56958 10.8868 5.56958H5.39175C4.38432 5.56958 3.56006 6.39384 3.56006 7.40127V18.3914C3.56006 19.3989 4.38432 20.2231 5.39175 20.2231H16.3819C17.3893 20.2231 18.2136 19.3989 18.2136 18.3914V12.8963C18.2136 12.3926 17.8015 11.9805 17.2977 11.9805Z" fill="white"/>
        <path d="M20.0625 5.56967H18.2125V3.71966C18.2125 3.2251 17.8096 2.82213 17.315 2.82213H17.2875C16.7838 2.82213 16.3808 3.2251 16.3808 3.71966V5.56967H14.54C14.0454 5.56967 13.6425 5.97264 13.6333 6.4672V6.49467C13.6333 6.99839 14.0363 7.40136 14.54 7.40136H16.3808V9.24221C16.3808 9.73677 16.7838 10.1489 17.2875 10.1397H17.315C17.8096 10.1397 18.2125 9.73677 18.2125 9.24221V7.40136H20.0625C20.5571 7.40136 20.9601 6.99839 20.9601 6.50383V6.4672C20.9601 5.97264 20.5571 5.56967 20.0625 5.56967Z" fill="white"/>
        <path d="M13.6336 9.23267H8.1385C7.63479 9.23267 7.22266 9.6448 7.22266 10.1485C7.22266 10.6522 7.63479 11.0644 8.1385 11.0644H13.6336C14.1373 11.0644 14.5494 10.6522 14.5494 10.1485C14.5494 9.6448 14.1373 9.23267 13.6336 9.23267Z" fill="white"/>
        <path d="M13.6336 11.9806H8.1385C7.63479 11.9806 7.22266 12.3928 7.22266 12.8965C7.22266 13.4002 7.63479 13.8123 8.1385 13.8123H13.6336C14.1373 13.8123 14.5494 13.4002 14.5494 12.8965C14.5494 12.3928 14.1373 11.9806 13.6336 11.9806Z" fill="white"/>
        <path d="M13.6336 14.7281H8.1385C7.63479 14.7281 7.22266 15.1402 7.22266 15.6439C7.22266 16.1476 7.63479 16.5598 8.1385 16.5598H13.6336C14.1373 16.5598 14.5494 16.1476 14.5494 15.6439C14.5494 15.1402 14.1373 14.7281 13.6336 14.7281Z" fill="white"/>
    </g>
    
</symbol><symbol id="profile" viewBox="0 0 24 24">
    <circle cx="11.5789" cy="7.27803" r="4.77803" stroke="currentColor" stroke-width="1.5" stroke-linecap="round" stroke-linejoin="round" fill-opacity="0"/>
    <path fill-rule="evenodd" clip-rule="evenodd" d="M4.00002 18.7014C3.99873 18.3655 4.07385 18.0337 4.2197 17.7311C4.67736 16.8158 5.96798 16.3307 7.03892 16.111C7.81128 15.9462 8.59431 15.836 9.38217 15.7815C10.8408 15.6533 12.3079 15.6533 13.7666 15.7815C14.5544 15.8367 15.3374 15.9468 16.1099 16.111C17.1808 16.3307 18.4714 16.77 18.9291 17.7311C19.2224 18.3479 19.2224 19.064 18.9291 19.6808C18.4714 20.6419 17.1808 21.0812 16.1099 21.2918C15.3384 21.4634 14.5551 21.5766 13.7666 21.6304C12.5794 21.7311 11.3866 21.7494 10.1968 21.6854C9.92221 21.6854 9.65677 21.6854 9.38217 21.6304C8.59663 21.5773 7.81632 21.4641 7.04807 21.2918C5.96798 21.0812 4.68652 20.6419 4.2197 19.6808C4.0746 19.3747 3.99955 19.0401 4.00002 18.7014Z" stroke="currentColor" stroke-width="1.5" stroke-linecap="round" stroke-linejoin="round" fill-opacity="0"/>
</symbol><symbol id="right" viewBox="0 0 24 24">
    <path fill-rule="evenodd" clip-rule="evenodd" d="M9.96967 7.46967C10.2626 7.17678 10.7374 7.17678 11.0303 7.46967L15.0303 11.4697C15.3232 11.7626 15.3232 12.2374 15.0303 12.5303L11.0303 16.5303C10.7374 16.8232 10.2626 16.8232 9.96967 16.5303C9.67678 16.2374 9.67678 15.7626 9.96967 15.4697L13.4393 12L9.96967 8.53033C9.67678 8.23744 9.67678 7.76256 9.96967 7.46967Z" fill="#444854"/>
</symbol><symbol id="search" viewBox="0 0 16 16">
    <path d="M6.72075 11.7814H6.72079C7.72922 11.7811 8.71436 11.484 9.55396 10.9285L12.8441 14.2195C12.9411 14.3197 13.057 14.3997 13.1852 14.4547C13.3137 14.5099 13.4518 14.539 13.5917 14.5402C13.7315 14.5414 13.8702 14.5147 13.9996 14.4618C14.1291 14.4088 14.2467 14.3306 14.3456 14.2317C14.4445 14.1328 14.5227 14.0152 14.5756 13.8858C14.6286 13.7564 14.6553 13.6177 14.654 13.4778C14.6528 13.338 14.6237 13.1998 14.5686 13.0713C14.5135 12.9432 14.4336 12.8273 14.3334 12.7303L11.0432 9.4392C11.5982 8.59976 11.895 7.61496 11.8953 6.60694V6.6069C11.8953 3.75968 9.56797 1.43237 6.72075 1.43237C3.87353 1.43237 1.54622 3.75968 1.54622 6.6069C1.54622 9.45412 3.87353 11.7814 6.72075 11.7814ZM6.72075 2.85193C7.71663 2.85193 8.6717 3.24754 9.3759 3.95174C10.0801 4.65593 10.4757 5.61102 10.4757 6.6069C10.4757 7.60278 10.0801 8.55787 9.3759 9.26207C8.6717 9.96626 7.71663 10.3619 6.72075 10.3619C5.72487 10.3619 4.76979 9.96626 4.0656 9.26207C3.3614 8.55787 2.96578 7.60278 2.96578 6.6069C2.96578 5.61102 3.3614 4.65593 4.0656 3.95174C4.76979 3.24754 5.72487 2.85193 6.72075 2.85193Z" fill="white" stroke="white" stroke-width="0.274754"/>
</symbol><symbol id="service" viewBox="0 0 24 24">
    <path d="M2.80408 15.477C2.80408 15.477 2.94608 17.215 2.97908 17.763C3.02308 18.498 3.30708 19.319 3.78108 19.889C4.45008 20.697 5.23808 20.982 6.29008 20.984C7.52708 20.986 16.5221 20.986 17.7591 20.984C18.8111 20.982 19.5991 20.697 20.2681 19.889C20.7421 19.319 21.0261 18.498 21.0711 17.763C21.1031 17.215 21.2451 15.477 21.2451 15.477" stroke="currentColor" stroke-width="1.5" fill-opacity="0" stroke-linecap="round" stroke-linejoin="round"/>
    <path d="M8.49597 5.32949V4.95849C8.49597 3.73849 9.48397 2.75049 10.704 2.75049H13.286C14.505 2.75049 15.494 3.73849 15.494 4.95849L15.495 5.32949" stroke="currentColor" stroke-width="1.5" stroke-linecap="round" stroke-linejoin="round"/>
    <path d="M11.995 16.6782V15.3842" stroke="currentColor" fill-opacity="0" stroke-width="1.5" stroke-linecap="round" stroke-linejoin="round"/>
    <path fill-rule="evenodd" clip-rule="evenodd" d="M2.74988 8.38912V11.8561C4.66788 13.1211 6.96588 14.0071 9.48788 14.3581C9.78988 13.2571 10.7829 12.4501 11.9899 12.4501C13.1779 12.4501 14.1909 13.2571 14.4729 14.3681C17.0049 14.0171 19.3119 13.1311 21.2399 11.8561V8.38912C21.2399 6.69512 19.8769 5.33112 18.1829 5.33112H5.81688C4.12288 5.33112 2.74988 6.69512 2.74988 8.38912Z" stroke="currentColor" stroke-width="1.5" stroke-linecap="round" fill-opacity="0" stroke-linejoin="round"/>
</symbol><symbol id="share" viewBox="0 0 24 24">
    <path d="M12 3C10.3916 3 9.08789 4.28906 9.02344 5.88281C6.31934 7.03125 4.5 9.70605 4.5 12.75C4.5 12.8789 4.49414 13.0195 4.5 13.1719C3.6123 13.6934 3 14.6514 3 15.75C3 17.3994 4.35059 18.75 6 18.75C6.43066 18.75 6.84668 18.6592 7.21875 18.4922C8.51953 19.585 10.2129 20.25 12 20.25C13.7871 20.25 15.4805 19.585 16.7812 18.4922C17.1533 18.6592 17.5693 18.75 18 18.75C19.6494 18.75 21 17.3994 21 15.75C21 14.6396 20.3818 13.667 19.4766 13.1484C19.4883 13.0283 19.5 12.9053 19.5 12.75C19.5 9.70605 17.6807 7.03125 14.9766 5.88281C14.9121 4.28906 13.6084 3 12 3ZM12 4.5C12.8379 4.5 13.5 5.16211 13.5 6C13.5 6.83789 12.8379 7.5 12 7.5C11.1621 7.5 10.5 6.83789 10.5 6C10.5 5.16211 11.1621 4.5 12 4.5ZM9.35156 7.38281C9.85547 8.33789 10.8516 9 12 9C13.1484 9 14.1445 8.33789 14.6484 7.38281C16.6582 8.3584 18 10.4092 18 12.75C16.3506 12.75 15 14.1006 15 15.75C15 16.4209 15.2314 17.0303 15.6094 17.5312C14.6074 18.29 13.3184 18.75 12 18.75C10.6816 18.75 9.39258 18.29 8.39062 17.5312C8.76855 17.0303 9 16.4209 9 15.75C9 14.1006 7.64941 12.75 6 12.75C6 10.4092 7.3418 8.3584 9.35156 7.38281ZM6 14.25C6.83789 14.25 7.5 14.9121 7.5 15.75C7.5 16.5879 6.83789 17.25 6 17.25C5.16211 17.25 4.5 16.5879 4.5 15.75C4.5 14.9121 5.16211 14.25 6 14.25ZM18 14.25C18.8379 14.25 19.5 14.9121 19.5 15.75C19.5 16.5879 18.8379 17.25 18 17.25C17.1621 17.25 16.5 16.5879 16.5 15.75C16.5 14.9121 17.1621 14.25 18 14.25Z" fill="currentColor"/>
</symbol><symbol id="shop" viewBox="0 0 24 24">
    <path fill-rule="evenodd" clip-rule="evenodd" fill-opacity="0" d="M7.42233 19.8203C7.84433 19.8203 8.18733 20.1633 8.18733 20.5853C8.18733 21.0073 7.84433 21.3493 7.42233 21.3493C7.00033 21.3493 6.65833 21.0073 6.65833 20.5853C6.65833 20.1633 7.00033 19.8203 7.42233 19.8203Z" stroke="currentColor" stroke-width="1.5" stroke-linecap="round" stroke-linejoin="round"/>
    <path fill-rule="evenodd" clip-rule="evenodd" d="M18.6747 19.8203C19.0967 19.8203 19.4397 20.1633 19.4397 20.5853C19.4397 21.0073 19.0967 21.3493 18.6747 21.3493C18.2527 21.3493 17.9097 21.0073 17.9097 20.5853C17.9097 20.1633 18.2527 19.8203 18.6747 19.8203Z" stroke="currentColor" stroke-width="1.5" stroke-linecap="round" stroke-linejoin="round" fill-opacity="0"/>
    <path d="M2.74988 3.25L4.82988 3.61L5.79288 15.083C5.87088 16.018 6.65188 16.736 7.58988 16.736H18.5019C19.3979 16.736 20.1579 16.078 20.2869 15.19L21.2359 8.632C21.3529 7.823 20.7259 7.099 19.9089 7.099H5.16388" stroke="currentColor" stroke-width="1.5" stroke-linecap="round" stroke-linejoin="round" fill-opacity="0"/>
    <path d="M14.1254 10.795H16.8984" stroke="currentColor" stroke-width="1.5" stroke-linecap="round" stroke-linejoin="round" fill-opacity="0"/>
</symbol><symbol id="signOut" viewBox="0 0 24 24">
    <path d="M7 6C7.26522 6 7.51957 5.89464 7.70711 5.70711C7.89464 5.51957 8 5.26522 8 5C8 4.73478 7.89464 4.48043 7.70711 4.29289C7.51957 4.10536 7.26522 4 7 4H5C4.73478 4 4.48043 4.10536 4.29289 4.29289C4.10536 4.48043 4 4.73478 4 5V19C4 19.2652 4.10536 19.5196 4.29289 19.7071C4.48043 19.8946 4.73478 20 5 20H7C7.26522 20 7.51957 19.8946 7.70711 19.7071C7.89464 19.5196 8 19.2652 8 19C8 18.7348 7.89464 18.4804 7.70711 18.2929C7.51957 18.1054 7.26522 18 7 18H6V6H7ZM20.82 11.42L18 7.42C17.8471 7.20441 17.615 7.05814 17.3545 7.01317C17.0941 6.9682 16.8264 7.02818 16.61 7.18C16.5018 7.25579 16.4098 7.35224 16.3391 7.46381C16.2684 7.57537 16.2206 7.69982 16.1982 7.82998C16.1759 7.96015 16.1796 8.09344 16.2091 8.22217C16.2386 8.3509 16.2933 8.47252 16.37 8.58L18.09 11H10C9.73478 11 9.48043 11.1054 9.29289 11.2929C9.10536 11.4804 9 11.7348 9 12C9 12.2652 9.10536 12.5196 9.29289 12.7071C9.48043 12.8946 9.73478 13 10 13H18L16.2 15.4C16.1212 15.5051 16.0639 15.6246 16.0313 15.7518C15.9987 15.879 15.9915 16.0114 16.01 16.1414C16.0286 16.2714 16.0726 16.3965 16.1395 16.5095C16.2064 16.6225 16.2949 16.7212 16.4 16.8C16.5731 16.9298 16.7836 17 17 17C17.1552 17 17.3084 16.9639 17.4472 16.8944C17.5861 16.825 17.7069 16.7242 17.8 16.6L20.8 12.6C20.9281 12.4309 20.999 12.2254 21.0026 12.0133C21.0062 11.8011 20.9423 11.5934 20.82 11.42Z" fill="currentColor"/>
</symbol><symbol id="star" viewBox="0 0 34 35">
    <path d="M19.954 2.52013L22.9504 8.55322C23.3542 9.38758 24.438 10.1792 25.3518 10.3503L30.7709 11.2488C34.2349 11.8265 35.0425 14.351 32.5561 16.8754L28.327 21.1328C27.6257 21.8388 27.2219 23.2294 27.4557 24.235L28.667 29.4979C29.6234 33.6483 27.4132 35.2742 23.7792 33.092L18.7001 30.0541C17.7863 29.4979 16.2562 29.4979 15.3424 30.0541L10.2633 33.092C6.62929 35.2528 4.41914 33.6483 5.37546 29.4979L6.58679 24.235C6.77805 23.208 6.37427 21.8174 5.67298 21.1114L1.44394 16.8541C-1.04248 14.351 -0.234927 11.8265 3.22906 11.2275L8.64818 10.3289C9.56199 10.1792 10.6458 9.36619 11.0496 8.53182L14.046 2.49874C15.6824 -0.753137 18.3176 -0.753136 19.954 2.52013Z" fill="currentColor"/>
</symbol><symbol id="task" viewBox="0 0 24 24">
    <path d="M15.8554 8.12111L10.1916 13.8227L3.56064 9.74147C2.69176 9.20657 2.86787 7.88697 3.8467 7.60287L19.5022 3.04743C20.3925 2.78978 21.2156 3.62446 20.949 4.51889L16.304 20.1582C16.013 21.1369 14.7082 21.3064 14.1809 20.4325L10.1916 13.8227" stroke="currentColor" fill-opacity="0" stroke-width="1.5" stroke-linecap="round" stroke-linejoin="round"/>
</symbol><symbol id="twitter" viewBox="0 0 24 24">
    <path d="M21 6.41894C20.3379 6.71191 19.626 6.91113 18.8789 6.99902C19.6406 6.54199 20.2266 5.81836 20.502 4.95703C19.79 5.37891 18.999 5.68652 18.1582 5.85352C17.4844 5.13574 16.5234 4.68457 15.4629 4.68457C13.4238 4.68457 11.7686 6.33984 11.7686 8.37891C11.7686 8.66895 11.8008 8.95019 11.8652 9.21973C8.79492 9.06738 6.07324 7.59668 4.25391 5.36133C3.93457 5.90625 3.75293 6.54199 3.75293 7.21875C3.75293 8.49902 4.40332 9.62988 5.39648 10.292C4.79004 10.2715 4.22168 10.1074 3.72363 9.8291C3.72363 9.84668 3.72363 9.86133 3.72363 9.87598C3.72363 11.666 4.99512 13.1602 6.68555 13.4971C6.375 13.582 6.0498 13.6289 5.71289 13.6289C5.47559 13.6289 5.24121 13.6055 5.01855 13.5615C5.4873 15.0293 6.85254 16.0957 8.4668 16.1279C7.2041 17.1182 5.61035 17.707 3.88184 17.707C3.58301 17.707 3.29004 17.6895 3 17.6543C4.63477 18.7031 6.57422 19.3154 8.66016 19.3154C15.4541 19.3154 19.1689 13.6875 19.1689 8.80664C19.1689 8.64844 19.1631 8.4873 19.1572 8.3291C19.8779 7.80762 20.5049 7.15723 21 6.41894Z" fill="currentColor"/>
</symbol><symbol id="userLocation" viewBox="0 0 107 107">
    <path fill-rule="evenodd" clip-rule="evenodd" d="M67.411 2.82129C63.0878 0.94043 58.4508 0 53.5 0C48.5492 0 43.9122 0.94043 39.589 2.82129C35.2657 4.70215 31.4655 7.27962 28.1882 10.5537C24.9806 13.7581 22.4355 17.5199 20.5528 21.8389C18.7398 26.1579 17.8333 30.7904 17.8333 35.7363C17.8333 39.3587 18.3563 42.8418 19.4022 46.1855C20.4482 49.5293 21.9125 52.5944 23.7952 55.3809L53.5 107L83.8324 54.5449C85.5059 51.8281 86.7959 48.8675 87.7024 45.6631C88.6786 42.4587 89.1667 39.1497 89.1667 35.7363C89.1667 30.7904 88.2602 26.1579 86.4472 21.8389C84.5645 17.5199 81.9845 13.7581 78.7072 10.5537C75.4997 7.27962 71.7343 4.70215 67.411 2.82129ZM53.5 53.5348C63.3587 53.5348 71.3508 45.5506 71.3508 35.7015C71.3508 25.8524 63.3587 17.8682 53.5 17.8682C43.6413 17.8682 35.6492 25.8524 35.6492 35.7015C35.6492 45.5506 43.6413 53.5348 53.5 53.5348Z" fill="black"/>
    <path d="M53.16 34.87C53.06 34.86 52.94 34.86 52.83 34.87C50.45 34.79 48.56 32.84 48.56 30.44C48.56 27.99 50.54 26 53 26C55.45 26 57.44 27.99 57.44 30.44C57.43 32.84 55.54 34.79 53.16 34.87Z" stroke="#292D32" stroke-width="1.5" stroke-linecap="round" stroke-linejoin="round"/>
    <path d="M48.16 38.56C45.74 40.18 45.74 42.82 48.16 44.43C50.91 46.27 55.42 46.27 58.17 44.43C60.59 42.81 60.59 40.17 58.17 38.56C55.43 36.73 50.92 36.73 48.16 38.56Z" stroke="#292D32" stroke-width="1.5" stroke-linecap="round" stroke-linejoin="round"/>
</symbol><symbol id="wallet" viewBox="0 0 24 24">
    <path d="M21.6389 14.3958H17.5906C16.1042 14.3949 14.8993 13.191 14.8984 11.7045C14.8984 10.2181 16.1042 9.01416 17.5906 9.01324H21.6389" stroke="currentColor" fill-opacity="0" stroke-width="1.5" stroke-linecap="round" stroke-linejoin="round"/>
    <path d="M18.0485 11.6429H17.7369" stroke="currentColor" fill-opacity="0" stroke-width="1.5" stroke-linecap="round" stroke-linejoin="round"/>
    <path fill-rule="evenodd" clip-rule="evenodd" d="M7.74766 3H16.3911C19.2892 3 21.6388 5.34951 21.6388 8.24766V15.4247C21.6388 18.3229 19.2892 20.6724 16.3911 20.6724H7.74766C4.84951 20.6724 2.5 18.3229 2.5 15.4247V8.24766C2.5 5.34951 4.84951 3 7.74766 3Z" stroke="currentColor" fill-opacity="0" stroke-width="1.5" stroke-linecap="round" stroke-linejoin="round"/>
    <path d="M7.03564 7.53814H12.4346" stroke="currentColor" fill-opacity="0" stroke-width="1.5" stroke-linecap="round" stroke-linejoin="round"/>
</symbol><symbol id="whatsapp" viewBox="0 0 24 24">
    <path d="M9.9206 7.40766L9.9209 7.40832C10.0522 7.70083 10.2695 8.23024 10.443 8.65259L10.4464 8.66095C10.5149 8.82774 10.5767 8.97816 10.6248 9.09391C10.6489 9.15184 10.6691 9.19974 10.6846 9.23596C10.6984 9.26807 10.7054 9.2835 10.7074 9.28795C10.7079 9.28911 10.7081 9.28952 10.708 9.28931C10.8081 9.48871 10.9103 9.81184 10.7303 10.1808L9.9206 7.40766ZM9.9206 7.40766C9.79983 7.13959 9.64314 6.92805 9.42231 6.80005M9.9206 7.40766L9.42231 6.80005M13.2541 13.965C13.1998 13.938 13.1319 13.9087 13.0693 13.8817L13.0602 13.8778L13.0591 13.8773C12.7138 13.7283 12.0552 13.4441 11.2911 12.7639L11.2903 12.7631C10.644 12.1904 10.1811 11.4832 10.0001 11.1828C10.0873 11.0945 10.1808 10.9816 10.2563 10.8903L10.2653 10.8795C10.3146 10.8199 10.359 10.7663 10.4007 10.7184L10.4008 10.7183C10.5585 10.5371 10.6308 10.3871 10.6992 10.2451L10.7031 10.2371L10.7031 10.2371L10.7303 10.1809L9.95445 11.1104L9.92572 11.127L9.92546 11.1272L9.52401 11.3599M13.2541 13.965L13.2449 13.9834C13.2494 13.9782 13.254 13.9728 13.2588 13.9673M13.2541 13.965C13.2541 13.965 13.254 13.9649 13.254 13.9649L13.2447 13.9836C13.2325 13.9978 13.2214 14.0108 13.2115 14.0223L13.2114 14.0223C13.1986 14.0372 13.1989 14.0333 13.2135 14.0241C13.2135 14.0241 13.2135 14.0241 13.2135 14.0241C13.214 14.0237 13.2146 14.0234 13.2151 14.023C13.2191 14.0207 13.2236 14.0181 13.2288 14.0155L13.2213 14.0307L13.2213 14.0308L13.0313 14.4126M13.2541 13.965C13.2557 13.9658 13.2572 13.9665 13.2588 13.9673M13.2588 13.9673C13.2994 13.9872 13.3217 13.9942 13.3297 13.9963C13.3308 13.9966 13.3313 13.9967 13.3313 13.9967C13.3313 13.9967 13.3172 13.9938 13.2933 13.9966C13.2792 13.9983 13.2644 14.0016 13.2498 14.0068C13.242 14.0095 13.235 14.0125 13.2289 14.0155L13.2213 14.0308L13.2213 14.0308L13.0313 14.4126M13.2588 13.9673C13.4478 13.747 13.8501 13.2736 13.991 13.0662M13.0313 14.4126C13.2886 14.5406 13.4419 14.5209 13.5903 14.3486C13.7388 14.1762 14.2334 13.6001 14.4066 13.3441M13.0313 14.4126C12.9895 14.3918 12.9325 14.3672 12.8621 14.3368C12.4998 14.1805 11.783 13.8712 10.9587 13.1373C10.1919 12.4579 9.67249 11.6159 9.52401 11.3599M13.991 13.0662C13.9902 13.0673 13.9894 13.0685 13.9887 13.0696L14.4066 13.3441M13.991 13.0662C13.9915 13.0654 13.992 13.0647 13.9925 13.064L14.4066 13.3441M13.991 13.0662C14.1287 12.858 14.3291 12.6876 14.6115 12.6544C14.8384 12.6276 15.0465 12.7053 15.1557 12.746L15.1601 12.7477L15.1602 12.7477C15.3063 12.8022 15.7096 12.9933 16.0753 13.1693C16.4554 13.3523 16.8383 13.5404 16.9691 13.6055L16.9692 13.6055C17.0163 13.629 17.0607 13.6502 17.105 13.6715L16.8888 14.1224M14.4066 13.3441C14.5748 13.0881 14.7479 13.1275 14.9854 13.2161C15.2228 13.3047 16.4892 13.9251 16.7464 14.0531C16.7972 14.0784 16.8448 14.1012 16.8888 14.1224M9.52401 11.3599L9.92538 11.1271L9.92564 11.127L9.95442 11.1103L10.0237 10.3899C9.97707 10.4435 9.92848 10.5022 9.88007 10.5607C9.79493 10.6636 9.71034 10.7658 9.63783 10.838C9.50923 10.9659 9.37562 11.1039 9.52401 11.3599ZM16.8888 14.1224L17.105 13.6715L17.1172 13.6774C17.1966 13.7154 17.292 13.7611 17.3734 13.8108C17.4584 13.8627 17.5836 13.9509 17.6711 14.0984M16.8888 14.1224C17.0678 14.2082 17.1895 14.2665 17.2411 14.3535M17.6711 14.0984L17.0927 15.5746C17.3054 14.9739 17.3054 14.4618 17.2411 14.3535M17.6711 14.0984C17.7507 14.2325 17.7671 14.387 17.7734 14.4663C17.7817 14.5722 17.7799 14.6933 17.7689 14.822C17.7468 15.0806 17.6847 15.4006 17.564 15.7415L17.5628 15.7449C17.3959 16.2053 16.9606 16.5749 16.5893 16.8141C16.2115 17.0574 15.7511 17.2604 15.3983 17.2934M17.6711 14.0984C17.671 14.0983 17.671 14.0983 17.671 14.0982L17.2411 14.3535M17.2411 14.3535L15.3983 17.2934M15.3983 17.2934C15.361 17.2969 15.3228 17.3015 15.2757 17.3072L15.2156 16.8108L15.2757 17.3072C15.0358 17.3362 14.7354 17.3714 14.2298 17.2866C13.7427 17.2049 13.0762 17.0143 12.0765 16.6208C9.50637 15.61 7.83484 13.139 7.50104 12.6455L7.49539 12.6371L7.90952 12.357L7.49539 12.6371L7.46471 12.5919L7.45636 12.5799C7.45585 12.5791 7.45548 12.5786 7.45523 12.5783L7.45098 12.5726L7.45094 12.5725L7.45089 12.5725C7.37176 12.4666 7.08928 12.0886 6.82602 11.5683C6.56614 11.0548 6.30327 10.3608 6.30327 9.62685C6.30327 8.24151 6.99959 7.50184 7.29369 7.19102L7.29369 7.19102C7.31107 7.17265 7.32491 7.15802 7.33703 7.14495C7.33703 7.14495 7.33703 7.14495 7.33704 7.14494L15.3983 17.2934ZM9.42231 6.80005C9.21136 6.67777 9.00439 6.67264 8.90971 6.67029M9.42231 6.80005L8.90971 6.67029M8.90971 6.67029C8.90661 6.67022 8.90362 6.67014 8.90076 6.67007L8.90971 6.67029ZM7.51635 20.1816C7.40484 20.1212 7.27455 20.1054 7.15185 20.1375L2.71223 21.2971L3.8968 16.9973C3.93241 16.868 3.91462 16.7299 3.84743 16.6139C3.01912 15.1837 2.58348 13.562 2.58408 11.9115V11.9114C2.58408 6.72456 6.82981 2.5 12.0419 2.5C14.5762 2.5 16.9475 3.48164 18.7335 5.25928C20.5189 7.03641 21.5 9.40027 21.5 11.9163C21.5 17.103 17.2543 21.3275 12.042 21.3275H12.0371C10.4535 21.3275 8.89791 20.93 7.51635 20.1816Z" fill="currentColor" stroke-linejoin="round"/>
</symbol><symbol id="whatsapp_outline" viewBox="0 0 24 24">
    <path fill-rule="evenodd" clip-rule="evenodd" d="M18.3779 5.62793C16.6846 3.93457 14.4346 3 12.0381 3C7.09863 3 3.07617 7.01953 3.07617 11.959C3.07324 13.5381 3.48633 15.0791 4.27148 16.4385L3 21.082L7.75195 19.834C9.05859 20.5488 10.5352 20.9238 12.0352 20.9268H12.0381C16.9775 20.9268 20.9971 16.9072 21 11.9648C21 9.57129 20.0684 7.32129 18.3779 5.62793ZM12.0381 19.4121H12.0352C10.6992 19.4121 9.38672 19.0518 8.24414 18.375L7.97168 18.2139L5.15039 18.9521L5.90332 16.2041L5.72754 15.9229C4.98047 14.7363 4.58789 13.3652 4.58789 11.959C4.58789 7.85449 7.93066 4.51465 12.041 4.51465C14.0303 4.51465 15.8994 5.29102 17.3057 6.69727C18.7119 8.10645 19.4854 9.97559 19.4854 11.9648C19.4854 16.0723 16.1426 19.4121 12.0381 19.4121ZM16.1221 13.834C15.8994 13.7227 14.7979 13.1807 14.5928 13.1074C14.3877 13.0312 14.2383 12.9961 14.0889 13.2188C13.9395 13.4443 13.5117 13.9482 13.3799 14.0977C13.251 14.2441 13.1191 14.2646 12.8965 14.1533C12.6709 14.042 11.9502 13.8047 11.0947 13.04C10.4297 12.4482 9.97852 11.7129 9.84961 11.4902C9.71777 11.2646 9.83496 11.1445 9.94629 11.0332C10.0488 10.9336 10.1719 10.7725 10.2832 10.6406C10.3945 10.5117 10.4326 10.418 10.5088 10.2686C10.582 10.1191 10.5439 9.9873 10.4883 9.87598C10.4326 9.76465 9.98438 8.66016 9.79688 8.21191C9.61523 7.77539 9.43066 7.83691 9.29297 7.82812C9.16406 7.82227 9.01465 7.82227 8.86524 7.82227C8.71582 7.82227 8.47266 7.87793 8.26758 8.10352C8.0625 8.32617 7.48535 8.86816 7.48535 9.96973C7.48535 11.0713 8.28809 12.1377 8.39941 12.2871C8.51074 12.4336 9.97852 14.6953 12.2256 15.665C12.7588 15.8965 13.1748 16.0342 13.5 16.1367C14.0361 16.3066 14.5254 16.2832 14.9121 16.2275C15.3428 16.1631 16.2363 15.6855 16.4238 15.1611C16.6084 14.6396 16.6084 14.1914 16.5527 14.0977C16.4971 14.0039 16.3477 13.9482 16.1221 13.834Z" fill="currentColor"/>
</symbol></svg>