<svg width="500" height="500" viewBox="0 0 500 500" fill="none" xmlns="http://www.w3.org/2000/svg">
    <rect width="500" height="500" rx="250" fill="#4F1DED" />
    <path
        d="M113.75 145.438C114.13 158.657 113.248 170.994 115.111 182.902C117.827 200.298 128.545 212.248 145.274 218.302C152.46 220.903 159.74 223.296 167.098 225.338C170.838 226.377 172.084 228.046 172.099 231.994C172.249 268.247 172.643 304.5 172.951 340.753C173.13 361.58 185.36 378.396 205.113 384.865C216.541 388.612 227.99 392.317 240.055 396.25C240.105 392.918 240.213 390.067 240.184 387.208C239.675 331.439 238.823 275.669 238.808 219.9C238.808 201.774 225.446 181.182 206.245 175.386C177.271 166.631 148.606 156.794 119.811 147.416C118.156 146.878 116.508 146.341 113.75 145.438Z"
        fill="white" />
    <path
        d="M385.876 145.438C385.497 158.657 386.378 170.994 384.515 182.902C381.8 200.298 371.082 212.248 354.352 218.302C347.166 220.903 339.887 223.296 332.529 225.338C328.789 226.377 327.542 228.046 327.528 231.994C327.377 268.247 326.983 304.5 326.675 340.753C326.496 361.58 314.266 378.396 294.513 384.865C283.086 388.612 271.637 392.317 259.571 396.25C259.521 392.918 259.414 390.067 259.442 387.208C259.951 331.439 260.804 275.669 260.818 219.9C260.818 201.774 274.18 181.182 293.381 175.386C322.369 166.631 351.028 156.794 379.822 147.416C381.463 146.878 383.118 146.341 385.876 145.438Z"
        fill="white" />
    <path d="M248.997 173.487C268.599 173.487 284.49 157.596 284.49 137.993C284.49 118.391 268.599 102.5 248.997 102.5C229.394 102.5 213.503 118.391 213.503 137.993C213.503 157.596 229.394 173.487 248.997 173.487Z" fill="white" />
</svg>