<svg width="345" height="142" viewBox="0 0 345 142" fill="none" xmlns="http://www.w3.org/2000/svg">
    <rect width="82" height="82" rx="41" fill="#4F1DED" />
    <path
        d="M18.655 23.8518C18.7173 26.0197 18.5728 28.043 18.8783 29.9959C19.3236 32.8488 21.0814 34.8087 23.825 35.8015C25.0035 36.228 26.1973 36.6205 27.4041 36.9554C28.0174 37.1257 28.2219 37.3995 28.2242 38.0469C28.2489 43.9924 28.3135 49.9379 28.364 55.8834C28.3934 59.2991 30.3991 62.0568 33.6386 63.1178C35.5127 63.7324 37.3904 64.3398 39.3691 64.9849C39.3773 64.4385 39.3949 63.9709 39.3902 63.5021C39.3068 54.3559 39.167 45.2097 39.1646 36.0635C39.1646 33.0908 36.9732 29.7139 33.8242 28.7633C29.0726 27.3274 24.3714 25.7142 19.6491 24.1761C19.3777 24.088 19.1074 23.9999 18.655 23.8518Z"
        fill="white" />
    <path
        d="M63.2838 23.8518C63.2215 26.0197 63.3661 28.043 63.0606 29.9959C62.6152 32.8488 60.8574 34.8087 58.1138 35.8015C56.9353 36.228 55.7415 36.6205 54.5348 36.9554C53.9214 37.1257 53.717 37.3995 53.7146 38.0469C53.69 43.9924 53.6253 49.9379 53.5748 55.8834C53.5454 59.2991 51.5397 62.0568 48.3002 63.1178C46.4261 63.7324 44.5485 64.3398 42.5698 64.9849C42.5616 64.4385 42.5439 63.9709 42.5486 63.5021C42.6321 54.3559 42.7719 45.2097 42.7742 36.0635C42.7742 33.0908 44.9656 29.7139 48.1146 28.7633C52.8686 27.3274 57.5686 25.7142 62.2909 24.1761C62.56 24.088 62.8314 23.9999 63.2838 23.8518Z"
        fill="white" />
    <path d="M40.8356 28.4518C44.0504 28.4518 46.6565 25.8457 46.6565 22.6309C46.6565 19.4161 44.0504 16.8099 40.8356 16.8099C37.6208 16.8099 35.0146 19.4161 35.0146 22.6309C35.0146 25.8457 37.6208 28.4518 40.8356 28.4518Z" fill="white" />
    <path
        d="M124.601 66.576C122.979 66.576 121.742 66.128 120.889 65.232C120.035 64.336 119.609 63.0773 119.609 61.456V29.072H108.281C106.958 29.072 105.934 28.7093 105.209 27.984C104.483 27.2587 104.12 26.256 104.12 24.976C104.12 23.6533 104.483 22.6507 105.209 21.968C105.934 21.2427 106.958 20.88 108.281 20.88H140.857C142.179 20.88 143.203 21.2427 143.929 21.968C144.654 22.6507 145.017 23.6533 145.017 24.976C145.017 26.256 144.654 27.2587 143.929 27.984C143.203 28.7093 142.179 29.072 140.857 29.072H129.529V61.456C129.529 63.0773 129.102 64.336 128.249 65.232C127.438 66.128 126.222 66.576 124.601 66.576ZM154.024 66.704C151.72 66.704 149.65 66.256 147.816 65.36C145.981 64.464 144.552 63.248 143.528 61.712C142.504 60.176 141.992 58.448 141.992 56.528C141.992 54.224 142.589 52.4107 143.784 51.088C144.978 49.7227 146.92 48.7627 149.608 48.208C152.296 47.6107 155.858 47.312 160.296 47.312H163.688V52.304H160.36C158.184 52.304 156.413 52.432 155.048 52.688C153.725 52.9013 152.765 53.2853 152.168 53.84C151.613 54.3947 151.336 55.1627 151.336 56.144C151.336 57.3387 151.741 58.32 152.552 59.088C153.405 59.856 154.621 60.24 156.2 60.24C157.437 60.24 158.525 59.9627 159.464 59.408C160.445 58.8107 161.213 58.0213 161.768 57.04C162.322 56.016 162.6 54.864 162.6 53.584V46.224C162.6 44.3467 162.173 43.024 161.32 42.256C160.466 41.4453 159.016 41.04 156.968 41.04C155.816 41.04 154.557 41.1893 153.192 41.488C151.869 41.744 150.397 42.192 148.776 42.832C147.837 43.2587 147.005 43.3653 146.28 43.152C145.554 42.896 145 42.4693 144.616 41.872C144.232 41.232 144.04 40.5493 144.04 39.824C144.04 39.056 144.253 38.3307 144.68 37.648C145.106 36.9227 145.81 36.3893 146.792 36.048C148.797 35.2373 150.674 34.6827 152.424 34.384C154.216 34.0853 155.858 33.936 157.352 33.936C160.637 33.936 163.325 34.4267 165.416 35.408C167.549 36.3467 169.149 37.8187 170.216 39.824C171.282 41.7867 171.816 44.3253 171.816 47.44V61.648C171.816 63.2267 171.432 64.4427 170.664 65.296C169.896 66.1493 168.786 66.576 167.336 66.576C165.885 66.576 164.754 66.1493 163.944 65.296C163.176 64.4427 162.792 63.2267 162.792 61.648V59.28L163.24 59.664C162.984 61.1147 162.429 62.3733 161.576 63.44C160.765 64.464 159.72 65.2747 158.44 65.872C157.16 66.4267 155.688 66.704 154.024 66.704ZM189.649 66.704C187.345 66.704 185.275 66.256 183.441 65.36C181.606 64.464 180.177 63.248 179.153 61.712C178.129 60.176 177.617 58.448 177.617 56.528C177.617 54.224 178.214 52.4107 179.409 51.088C180.603 49.7227 182.545 48.7627 185.233 48.208C187.921 47.6107 191.483 47.312 195.921 47.312H199.313V52.304H195.985C193.809 52.304 192.038 52.432 190.673 52.688C189.35 52.9013 188.39 53.2853 187.793 53.84C187.238 54.3947 186.961 55.1627 186.961 56.144C186.961 57.3387 187.366 58.32 188.177 59.088C189.03 59.856 190.246 60.24 191.825 60.24C193.062 60.24 194.15 59.9627 195.089 59.408C196.07 58.8107 196.838 58.0213 197.393 57.04C197.947 56.016 198.225 54.864 198.225 53.584V46.224C198.225 44.3467 197.798 43.024 196.945 42.256C196.091 41.4453 194.641 41.04 192.593 41.04C191.441 41.04 190.182 41.1893 188.817 41.488C187.494 41.744 186.022 42.192 184.401 42.832C183.462 43.2587 182.63 43.3653 181.905 43.152C181.179 42.896 180.625 42.4693 180.241 41.872C179.857 41.232 179.665 40.5493 179.665 39.824C179.665 39.056 179.878 38.3307 180.305 37.648C180.731 36.9227 181.435 36.3893 182.417 36.048C184.422 35.2373 186.299 34.6827 188.049 34.384C189.841 34.0853 191.483 33.936 192.977 33.936C196.262 33.936 198.95 34.4267 201.041 35.408C203.174 36.3467 204.774 37.8187 205.841 39.824C206.907 41.7867 207.441 44.3253 207.441 47.44V61.648C207.441 63.2267 207.057 64.4427 206.289 65.296C205.521 66.1493 204.411 66.576 202.961 66.576C201.51 66.576 200.379 66.1493 199.569 65.296C198.801 64.4427 198.417 63.2267 198.417 61.648V59.28L198.865 59.664C198.609 61.1147 198.054 62.3733 197.201 63.44C196.39 64.464 195.345 65.2747 194.065 65.872C192.785 66.4267 191.313 66.704 189.649 66.704ZM226.682 66.704C224.804 66.704 222.863 66.5333 220.858 66.192C218.895 65.8507 217.103 65.2747 215.482 64.464C214.628 64.0373 214.01 63.504 213.626 62.864C213.284 62.1813 213.135 61.4987 213.178 60.816C213.22 60.1333 213.434 59.5147 213.818 58.96C214.244 58.4053 214.778 58.0427 215.418 57.872C216.1 57.6587 216.847 57.7227 217.658 58.064C219.407 58.7893 221.007 59.3013 222.458 59.6C223.908 59.8987 225.338 60.048 226.746 60.048C228.58 60.048 229.903 59.7707 230.714 59.216C231.567 58.6187 231.994 57.8507 231.994 56.912C231.994 56.0587 231.716 55.4187 231.162 54.992C230.607 54.5653 229.796 54.2667 228.73 54.096L222.01 52.88C219.364 52.4107 217.316 51.4507 215.866 50C214.458 48.5067 213.754 46.608 213.754 44.304C213.754 42.1707 214.351 40.336 215.546 38.8C216.74 37.2213 218.383 36.0267 220.474 35.216C222.607 34.3627 225.018 33.936 227.706 33.936C229.626 33.936 231.396 34.1067 233.018 34.448C234.639 34.7893 236.196 35.344 237.69 36.112C238.458 36.496 238.991 37.008 239.29 37.648C239.631 38.288 239.738 38.9493 239.61 39.632C239.524 40.3147 239.268 40.9333 238.842 41.488C238.415 42.0427 237.86 42.4053 237.178 42.576C236.538 42.7467 235.791 42.6613 234.938 42.32C233.572 41.68 232.314 41.232 231.162 40.976C230.01 40.6773 228.9 40.528 227.833 40.528C225.914 40.528 224.527 40.848 223.674 41.488C222.82 42.0853 222.394 42.8533 222.394 43.792C222.394 44.5173 222.628 45.136 223.098 45.648C223.61 46.1173 224.378 46.4373 225.402 46.608L232.122 47.824C234.895 48.2933 237.007 49.232 238.458 50.64C239.908 52.0053 240.634 53.8827 240.634 56.272C240.634 59.5147 239.354 62.0747 236.794 63.952C234.276 65.7867 230.906 66.704 226.682 66.704ZM251.014 66.576C249.435 66.576 248.219 66.1493 247.366 65.296C246.555 64.4427 246.15 63.2267 246.15 61.648V25.232C246.15 23.6107 246.555 22.3947 247.366 21.584C248.219 20.7307 249.435 20.304 251.014 20.304C252.55 20.304 253.723 20.7307 254.534 21.584C255.387 22.3947 255.814 23.6107 255.814 25.232V47.568H255.942L265.222 37.264C266.16 36.1973 267.014 35.408 267.782 34.896C268.592 34.3413 269.659 34.064 270.982 34.064C272.304 34.064 273.307 34.4053 273.99 35.088C274.715 35.7707 275.078 36.6027 275.078 37.584C275.12 38.5227 274.715 39.4827 273.862 40.464L264.07 51.408V47.76L274.95 60.304C275.76 61.2853 276.102 62.2667 275.974 63.248C275.888 64.2293 275.462 65.04 274.694 65.68C273.926 66.2773 272.944 66.576 271.75 66.576C270.299 66.576 269.126 66.2987 268.23 65.744C267.376 65.1893 266.502 64.336 265.606 63.184L255.942 52.432H255.814V61.648C255.814 64.9333 254.214 66.576 251.014 66.576ZM293.165 66.704C289.368 66.704 286.53 65.6587 284.653 63.568C282.776 61.4347 281.837 58.2773 281.837 54.096V25.232C281.837 23.6107 282.242 22.3947 283.053 21.584C283.906 20.7307 285.122 20.304 286.701 20.304C288.237 20.304 289.41 20.7307 290.221 21.584C291.074 22.3947 291.501 23.6107 291.501 25.232V53.712C291.501 55.4613 291.864 56.7627 292.589 57.616C293.357 58.4267 294.36 58.832 295.597 58.832C295.938 58.832 296.258 58.8107 296.557 58.768C296.856 58.7253 297.176 58.704 297.517 58.704C298.2 58.6187 298.669 58.832 298.925 59.344C299.224 59.8133 299.373 60.7733 299.373 62.224C299.373 63.504 299.117 64.4853 298.605 65.168C298.093 65.808 297.304 66.2347 296.237 66.448C295.81 66.4907 295.32 66.5333 294.765 66.576C294.21 66.6613 293.677 66.704 293.165 66.704ZM310.851 78.096C309.741 78.096 308.824 77.7973 308.099 77.2C307.373 76.6027 306.947 75.8133 306.819 74.832C306.691 73.8933 306.861 72.8907 307.331 71.824L311.619 62.352V66.32L300.291 40.336C299.864 39.2267 299.715 38.2027 299.843 37.264C300.013 36.2827 300.483 35.5147 301.251 34.96C302.061 34.3627 303.171 34.064 304.579 34.064C305.731 34.064 306.648 34.3413 307.331 34.896C308.056 35.408 308.717 36.4107 309.315 37.904L316.867 57.104H314.819L322.627 37.84C323.224 36.3893 323.885 35.408 324.611 34.896C325.379 34.3413 326.403 34.064 327.683 34.064C328.792 34.064 329.667 34.3627 330.307 34.96C330.989 35.5147 331.395 36.2613 331.523 37.2C331.693 38.1387 331.523 39.1627 331.011 40.272L315.971 74.384C315.331 75.8347 314.605 76.816 313.795 77.328C313.027 77.84 312.045 78.096 310.851 78.096Z"
        fill="#4F1DED" />
    <rect x="157" y="89" width="188" height="53" rx="26.5" fill="#4F1DED" />
    <path
        d="M226.676 125.3C225.796 125.3 224.916 125.23 224.036 125.09C223.156 124.97 222.326 124.78 221.546 124.52C220.766 124.24 220.066 123.9 219.446 123.5C219.086 123.26 218.836 122.97 218.696 122.63C218.556 122.29 218.506 121.96 218.546 121.64C218.606 121.3 218.736 121.01 218.936 120.77C219.156 120.51 219.426 120.35 219.746 120.29C220.066 120.23 220.416 120.32 220.796 120.56C221.676 121.08 222.606 121.46 223.586 121.7C224.566 121.94 225.596 122.06 226.676 122.06C228.256 122.06 229.406 121.8 230.126 121.28C230.846 120.74 231.206 120.05 231.206 119.21C231.206 118.51 230.946 117.96 230.426 117.56C229.926 117.16 229.056 116.83 227.816 116.57L224.516 115.88C222.616 115.48 221.196 114.81 220.256 113.87C219.336 112.91 218.876 111.65 218.876 110.09C218.876 109.11 219.076 108.22 219.476 107.42C219.876 106.62 220.436 105.93 221.156 105.35C221.896 104.77 222.766 104.33 223.766 104.03C224.786 103.71 225.906 103.55 227.126 103.55C228.326 103.55 229.466 103.7 230.546 104C231.626 104.3 232.596 104.74 233.456 105.32C233.776 105.54 233.986 105.81 234.086 106.13C234.206 106.45 234.236 106.77 234.176 107.09C234.116 107.39 233.976 107.65 233.756 107.87C233.536 108.09 233.256 108.22 232.916 108.26C232.596 108.3 232.226 108.2 231.806 107.96C231.066 107.54 230.316 107.24 229.556 107.06C228.796 106.88 227.976 106.79 227.096 106.79C226.176 106.79 225.386 106.92 224.726 107.18C224.066 107.44 223.556 107.81 223.196 108.29C222.856 108.75 222.686 109.3 222.686 109.94C222.686 110.66 222.926 111.24 223.406 111.68C223.886 112.1 224.706 112.43 225.866 112.67L229.136 113.36C231.116 113.78 232.586 114.44 233.546 115.34C234.526 116.24 235.016 117.44 235.016 118.94C235.016 119.9 234.816 120.77 234.416 121.55C234.036 122.33 233.476 123 232.736 123.56C232.016 124.12 231.146 124.55 230.126 124.85C229.106 125.15 227.956 125.3 226.676 125.3ZM239.812 125.21C239.212 125.21 238.752 125.03 238.432 124.67C238.112 124.31 237.952 123.81 237.952 123.17V112.16C237.952 111.5 238.112 111 238.432 110.66C238.752 110.3 239.212 110.12 239.812 110.12C240.412 110.12 240.872 110.3 241.192 110.66C241.532 111 241.702 111.5 241.702 112.16V123.17C241.702 123.81 241.542 124.31 241.222 124.67C240.902 125.03 240.432 125.21 239.812 125.21ZM239.812 107.33C239.112 107.33 238.562 107.16 238.162 106.82C237.782 106.46 237.592 105.97 237.592 105.35C237.592 104.71 237.782 104.22 238.162 103.88C238.562 103.54 239.112 103.37 239.812 103.37C240.532 103.37 241.082 103.54 241.462 103.88C241.842 104.22 242.032 104.71 242.032 105.35C242.032 105.97 241.842 106.46 241.462 106.82C241.082 107.16 240.532 107.33 239.812 107.33ZM252.318 125.3C251.018 125.3 249.928 125.08 249.048 124.64C248.188 124.2 247.548 123.56 247.128 122.72C246.708 121.86 246.498 120.8 246.498 119.54V113.15H244.938C244.458 113.15 244.088 113.03 243.828 112.79C243.568 112.53 243.438 112.18 243.438 111.74C243.438 111.28 243.568 110.93 243.828 110.69C244.088 110.45 244.458 110.33 244.938 110.33H246.498V107.6C246.498 106.98 246.658 106.51 246.978 106.19C247.318 105.87 247.788 105.71 248.388 105.71C248.988 105.71 249.448 105.87 249.768 106.19C250.088 106.51 250.248 106.98 250.248 107.6V110.33H253.428C253.908 110.33 254.278 110.45 254.538 110.69C254.798 110.93 254.928 111.28 254.928 111.74C254.928 112.18 254.798 112.53 254.538 112.79C254.278 113.03 253.908 113.15 253.428 113.15H250.248V119.33C250.248 120.29 250.458 121.01 250.878 121.49C251.298 121.97 251.978 122.21 252.918 122.21C253.258 122.21 253.558 122.18 253.818 122.12C254.078 122.06 254.308 122.02 254.508 122C254.748 121.98 254.948 122.06 255.108 122.24C255.268 122.4 255.348 122.74 255.348 123.26C255.348 123.66 255.278 124.02 255.138 124.34C255.018 124.64 254.788 124.85 254.448 124.97C254.188 125.05 253.848 125.12 253.428 125.18C253.008 125.26 252.638 125.3 252.318 125.3ZM264.196 125.3C262.536 125.3 261.106 124.99 259.906 124.37C258.706 123.75 257.776 122.87 257.116 121.73C256.476 120.59 256.156 119.24 256.156 117.68C256.156 116.16 256.466 114.83 257.086 113.69C257.726 112.55 258.596 111.66 259.696 111.02C260.816 110.36 262.086 110.03 263.506 110.03C264.546 110.03 265.476 110.2 266.296 110.54C267.136 110.88 267.846 111.37 268.426 112.01C269.026 112.65 269.476 113.43 269.776 114.35C270.096 115.25 270.256 116.27 270.256 117.41C270.256 117.77 270.126 118.05 269.866 118.25C269.626 118.43 269.276 118.52 268.816 118.52H259.186V116.36H267.616L267.136 116.81C267.136 115.89 266.996 115.12 266.716 114.5C266.456 113.88 266.066 113.41 265.546 113.09C265.046 112.75 264.416 112.58 263.656 112.58C262.816 112.58 262.096 112.78 261.496 113.18C260.916 113.56 260.466 114.11 260.146 114.83C259.846 115.53 259.696 116.37 259.696 117.35V117.56C259.696 119.2 260.076 120.43 260.836 121.25C261.616 122.05 262.756 122.45 264.256 122.45C264.776 122.45 265.356 122.39 265.996 122.27C266.656 122.13 267.276 121.9 267.856 121.58C268.276 121.34 268.646 121.24 268.966 121.28C269.286 121.3 269.536 121.41 269.716 121.61C269.916 121.81 270.036 122.06 270.076 122.36C270.116 122.64 270.056 122.93 269.896 123.23C269.756 123.53 269.506 123.79 269.146 124.01C268.446 124.45 267.636 124.78 266.716 125C265.816 125.2 264.976 125.3 264.196 125.3ZM278.595 125.3C277.735 125.3 276.825 125.21 275.865 125.03C274.905 124.85 274.045 124.54 273.285 124.1C272.965 123.9 272.735 123.67 272.595 123.41C272.475 123.13 272.425 122.86 272.445 122.6C272.485 122.32 272.585 122.08 272.745 121.88C272.925 121.68 273.145 121.55 273.405 121.49C273.685 121.43 273.985 121.48 274.305 121.64C275.105 122.02 275.855 122.29 276.555 122.45C277.255 122.59 277.945 122.66 278.625 122.66C279.585 122.66 280.295 122.5 280.755 122.18C281.235 121.84 281.475 121.4 281.475 120.86C281.475 120.4 281.315 120.05 280.995 119.81C280.695 119.55 280.235 119.36 279.615 119.24L276.615 118.67C275.375 118.43 274.425 117.98 273.765 117.32C273.125 116.64 272.805 115.77 272.805 114.71C272.805 113.75 273.065 112.92 273.585 112.22C274.125 111.52 274.865 110.98 275.805 110.6C276.745 110.22 277.825 110.03 279.045 110.03C279.925 110.03 280.745 110.13 281.505 110.33C282.285 110.51 283.035 110.8 283.755 111.2C284.055 111.36 284.255 111.57 284.355 111.83C284.475 112.09 284.505 112.36 284.445 112.64C284.385 112.9 284.265 113.14 284.085 113.36C283.905 113.56 283.675 113.69 283.395 113.75C283.135 113.79 282.835 113.73 282.495 113.57C281.875 113.25 281.275 113.02 280.695 112.88C280.135 112.74 279.595 112.67 279.075 112.67C278.095 112.67 277.365 112.84 276.885 113.18C276.425 113.52 276.195 113.97 276.195 114.53C276.195 114.95 276.335 115.3 276.615 115.58C276.895 115.86 277.325 116.05 277.905 116.15L280.905 116.72C282.205 116.96 283.185 117.4 283.845 118.04C284.525 118.68 284.865 119.54 284.865 120.62C284.865 122.08 284.295 123.23 283.155 124.07C282.015 124.89 280.495 125.3 278.595 125.3Z"
        fill="white" />
</svg>