<svg width="25" height="24" viewBox="0 0 25 24" fill="none" xmlns="http://www.w3.org/2000/svg">
    <g clip-path="url(#clip0_216_31562)">
        <path
            d="M12.3965 7V5C12.3965 3.9 11.4965 3 10.3965 3H4.39648C3.29648 3 2.39648 3.9 2.39648 5V19C2.39648 20.1 3.29648 21 4.39648 21H20.3965C21.4965 21 22.3965 20.1 22.3965 19V9C22.3965 7.9 21.4965 7 20.3965 7H12.3965ZM6.39648 19H4.39648V17H6.39648V19ZM6.39648 15H4.39648V13H6.39648V15ZM6.39648 11H4.39648V9H6.39648V11ZM6.39648 7H4.39648V5H6.39648V7ZM10.3965 19H8.39648V17H10.3965V19ZM10.3965 15H8.39648V13H10.3965V15ZM10.3965 11H8.39648V9H10.3965V11ZM10.3965 7H8.39648V5H10.3965V7ZM19.3965 19H12.3965V17H14.3965V15H12.3965V13H14.3965V11H12.3965V9H19.3965C19.9465 9 20.3965 9.45 20.3965 10V18C20.3965 18.55 19.9465 19 19.3965 19ZM18.3965 11H16.3965V13H18.3965V11ZM18.3965 15H16.3965V17H18.3965V15Z"
            fill="white" />
    </g>
    <defs>
        <clipPath id="clip0_216_31562">
            <rect width="24" height="24" fill="white" transform="translate(0.396484)" />
        </clipPath>
    </defs>
</svg>