<svg width="24" height="24" viewBox="0 0 24 24" fill="none" xmlns="http://www.w3.org/2000/svg">
    <path fill-rule="evenodd" clip-rule="evenodd"
        d="M8.80965 3.3303C10.9111 2.8899 13.0889 2.8899 15.1904 3.3303L15.6299 3.42243C17.4434 3.80248 19.0198 4.76242 20.1306 6.09162C20.3119 6.30858 20.2509 6.62141 20.0114 6.78002L13.3743 11.1751C12.5491 11.7215 11.4509 11.7215 10.6257 11.1751L3.98859 6.78002C3.74908 6.62142 3.68812 6.30859 3.86944 6.09162C4.98024 4.76243 6.55658 3.80248 8.37005 3.42243L8.80965 3.3303ZM3.32486 8.18534C3.04693 8.0013 2.65951 8.10681 2.55429 8.41192C2.49553 8.58232 2.44295 8.75548 2.39682 8.93119C1.86773 10.9465 1.86773 13.0536 2.39682 15.0688C3.12141 17.8286 5.43518 19.9625 8.37005 20.5776L8.80965 20.6697C10.9111 21.1101 13.0889 21.1101 15.1904 20.6697L15.6299 20.5776C18.5648 19.9625 20.8786 17.8286 21.6032 15.0688C22.1323 13.0535 22.1323 10.9465 21.6032 8.9312C21.557 8.75548 21.5045 8.58231 21.4457 8.4119C21.3405 8.1068 20.9531 8.00129 20.6751 8.18533L14.2904 12.4132C12.9152 13.3239 11.0848 13.3239 9.70953 12.4132L3.32486 8.18534Z"
        fill="currentColor" />
</svg>