<svg width="24" height="24" viewBox="0 0 24 24" fill="none" xmlns="http://www.w3.org/2000/svg">
    <path d="M12.0002 8.75053C10.2053 8.75053 8.75018 10.2056 8.75018 12.0005C8.75018 13.7955 10.2053 15.2505 12.0002 15.2505C13.7951 15.2505 15.2502 13.7955 15.2502 12.0005C15.2502 10.2056 13.7951 8.75053 12.0002 8.75053Z" fill="currentColor" />
    <path fill-rule="evenodd" clip-rule="evenodd"
        d="M6.76972 3.082C10.2178 2.69662 13.7825 2.69662 17.2307 3.082C19.1291 3.29418 20.6603 4.78995 20.8831 6.69501C21.2954 10.22 21.2954 13.7811 20.8831 17.3061C20.6603 19.2111 19.1291 20.7069 17.2307 20.9191C13.7825 21.3044 10.2178 21.3044 6.76972 20.9191C4.87132 20.7069 3.34013 19.2111 3.11732 17.3061C2.70504 13.7811 2.70504 10.22 3.11732 6.69501C3.34013 4.78995 4.87132 3.29418 6.76972 3.082ZM17.0002 6.00053C16.4479 6.00053 16.0002 6.44825 16.0002 7.00053C16.0002 7.55282 16.4479 8.00053 17.0002 8.00053C17.5525 8.00053 18.0002 7.55282 18.0002 7.00053C18.0002 6.44825 17.5525 6.00053 17.0002 6.00053ZM7.25018 12.0005C7.25018 9.37718 9.37683 7.25053 12.0002 7.25053C14.6235 7.25053 16.7502 9.37718 16.7502 12.0005C16.7502 14.6239 14.6235 16.7505 12.0002 16.7505C9.37683 16.7505 7.25018 14.6239 7.25018 12.0005Z"
        fill="currentColor" />
</svg>