<svg width="83" height="82" viewBox="0 0 83 82" fill="none" xmlns="http://www.w3.org/2000/svg">
    <rect x="0.5" width="82" height="82" rx="41" fill="#4F1DED" />
    <path
        d="M19.196 23.9338C19.2583 26.1017 19.1137 28.1251 19.4192 30.0779C19.8646 32.9309 21.6224 34.8908 24.366 35.8837C25.5446 36.3102 26.7384 36.7027 27.9451 37.0376C28.5585 37.2079 28.7629 37.4817 28.7653 38.1291C28.79 44.0747 28.8546 50.0203 28.9051 55.9657C28.9345 59.3817 30.9402 62.1394 34.1798 63.2005C36.0539 63.8149 37.9316 64.4222 39.9103 65.0675C39.9185 64.5212 39.9361 64.0533 39.9314 63.5847C39.848 54.4383 39.7082 45.292 39.7058 36.1457C39.7058 33.1729 37.5144 29.7959 34.3654 28.8454C29.6137 27.4095 24.9124 25.7962 20.19 24.2581C19.9186 24.17 19.6484 24.0818 19.196 23.9338Z"
        fill="white" />
    <path
        d="M63.8253 23.9338C63.7632 26.1017 63.9075 28.1251 63.6021 30.0779C63.157 32.9309 61.3989 34.8908 58.6554 35.8837C57.4768 36.3102 56.283 36.7027 55.0762 37.0376C54.4629 37.2079 54.2584 37.4817 54.2561 38.1291C54.2314 44.0747 54.1668 50.0203 54.1163 55.9657C54.0869 59.3817 52.0812 62.1394 48.8416 63.2005C46.9675 63.8149 45.0898 64.4222 43.1111 65.0675C43.1029 64.5212 43.0853 64.0533 43.09 63.5847C43.1734 54.4383 43.3132 45.292 43.3156 36.1457C43.3156 33.1729 45.507 29.7959 48.656 28.8454C53.4101 27.4095 58.1101 25.7962 62.8327 24.2581C63.1016 24.17 63.3731 24.0818 63.8253 23.9338Z"
        fill="white" />
    <path d="M41.3769 28.534C44.5917 28.534 47.1979 25.9279 47.1979 22.713C47.1979 19.4982 44.5917 16.892 41.3769 16.892C38.162 16.892 35.5558 19.4982 35.5558 22.713C35.5558 25.9279 38.162 28.534 41.3769 28.534Z" fill="white" />
</svg>