<svg width="23" height="23" viewBox="0 0 23 23" fill="none" xmlns="http://www.w3.org/2000/svg">
    <g clip-path="url(#clip0_216_31548)">
        <path
            d="M17.2977 11.9805C16.794 11.9805 16.3819 12.3926 16.3819 12.8963V17.6771C16.3819 18.1808 15.9698 18.5929 15.4661 18.5929H6.3076C5.80388 18.5929 5.39175 18.1808 5.39175 17.6771V8.31712C5.39175 7.8134 5.80388 7.40127 6.3076 7.40127H10.8868C11.3905 7.40127 11.8027 6.98914 11.8027 6.48543C11.8027 5.98171 11.3905 5.56958 10.8868 5.56958H5.39175C4.38432 5.56958 3.56006 6.39384 3.56006 7.40127V18.3914C3.56006 19.3989 4.38432 20.2231 5.39175 20.2231H16.3819C17.3893 20.2231 18.2136 19.3989 18.2136 18.3914V12.8963C18.2136 12.3926 17.8015 11.9805 17.2977 11.9805Z"
            fill="white" />
        <path
            d="M20.0625 5.56967H18.2125V3.71966C18.2125 3.2251 17.8096 2.82213 17.315 2.82213H17.2875C16.7838 2.82213 16.3808 3.2251 16.3808 3.71966V5.56967H14.54C14.0454 5.56967 13.6425 5.97264 13.6333 6.4672V6.49467C13.6333 6.99839 14.0363 7.40136 14.54 7.40136H16.3808V9.24221C16.3808 9.73677 16.7838 10.1489 17.2875 10.1397H17.315C17.8096 10.1397 18.2125 9.73677 18.2125 9.24221V7.40136H20.0625C20.5571 7.40136 20.9601 6.99839 20.9601 6.50383V6.4672C20.9601 5.97264 20.5571 5.56967 20.0625 5.56967Z"
            fill="white" />
        <path d="M13.6336 9.23267H8.1385C7.63479 9.23267 7.22266 9.6448 7.22266 10.1485C7.22266 10.6522 7.63479 11.0644 8.1385 11.0644H13.6336C14.1373 11.0644 14.5494 10.6522 14.5494 10.1485C14.5494 9.6448 14.1373 9.23267 13.6336 9.23267Z" fill="white" />
        <path d="M13.6336 11.9806H8.1385C7.63479 11.9806 7.22266 12.3928 7.22266 12.8965C7.22266 13.4002 7.63479 13.8123 8.1385 13.8123H13.6336C14.1373 13.8123 14.5494 13.4002 14.5494 12.8965C14.5494 12.3928 14.1373 11.9806 13.6336 11.9806Z" fill="white" />
        <path d="M13.6336 14.7281H8.1385C7.63479 14.7281 7.22266 15.1402 7.22266 15.6439C7.22266 16.1476 7.63479 16.5598 8.1385 16.5598H13.6336C14.1373 16.5598 14.5494 16.1476 14.5494 15.6439C14.5494 15.1402 14.1373 14.7281 13.6336 14.7281Z" fill="white" />
    </g>
    <defs>
        <clipPath id="clip0_216_31548">
            <rect width="21.9803" height="21.9803" fill="white" transform="translate(0.812012 0.99028)" />
        </clipPath>
    </defs>
</svg>