<svg width="34" height="35" viewBox="0 0 34 35" fill="none" xmlns="http://www.w3.org/2000/svg">
    <path
        d="M19.954 2.52013L22.9504 8.55322C23.3542 9.38758 24.438 10.1792 25.3518 10.3503L30.7709 11.2488C34.2349 11.8265 35.0425 14.351 32.5561 16.8754L28.327 21.1328C27.6257 21.8388 27.2219 23.2294 27.4557 24.235L28.667 29.4979C29.6234 33.6483 27.4132 35.2742 23.7792 33.092L18.7001 30.0541C17.7863 29.4979 16.2562 29.4979 15.3424 30.0541L10.2633 33.092C6.62929 35.2528 4.41914 33.6483 5.37546 29.4979L6.58679 24.235C6.77805 23.208 6.37427 21.8174 5.67298 21.1114L1.44394 16.8541C-1.04248 14.351 -0.234927 11.8265 3.22906 11.2275L8.64818 10.3289C9.56199 10.1792 10.6458 9.36619 11.0496 8.53182L14.046 2.49874C15.6824 -0.753137 18.3176 -0.753136 19.954 2.52013Z"
        fill="currentColor" />
</svg>