<svg width="107" height="107" viewBox="0 0 107 107" fill="none" xmlns="http://www.w3.org/2000/svg">
    <path fill-rule="evenodd" clip-rule="evenodd"
        d="M67.411 2.82129C63.0878 0.94043 58.4508 0 53.5 0C48.5492 0 43.9122 0.94043 39.589 2.82129C35.2657 4.70215 31.4655 7.27962 28.1882 10.5537C24.9806 13.7581 22.4355 17.5199 20.5528 21.8389C18.7398 26.1579 17.8333 30.7904 17.8333 35.7363C17.8333 39.3587 18.3563 42.8418 19.4022 46.1855C20.4482 49.5293 21.9125 52.5944 23.7952 55.3809L53.5 107L83.8324 54.5449C85.5059 51.8281 86.7959 48.8675 87.7024 45.6631C88.6786 42.4587 89.1667 39.1497 89.1667 35.7363C89.1667 30.7904 88.2602 26.1579 86.4472 21.8389C84.5645 17.5199 81.9845 13.7581 78.7072 10.5537C75.4997 7.27962 71.7343 4.70215 67.411 2.82129ZM53.5 53.5348C63.3587 53.5348 71.3508 45.5506 71.3508 35.7015C71.3508 25.8524 63.3587 17.8682 53.5 17.8682C43.6413 17.8682 35.6492 25.8524 35.6492 35.7015C35.6492 45.5506 43.6413 53.5348 53.5 53.5348Z"
        fill="black" />
    <path d="M53.16 34.87C53.06 34.86 52.94 34.86 52.83 34.87C50.45 34.79 48.56 32.84 48.56 30.44C48.56 27.99 50.54 26 53 26C55.45 26 57.44 27.99 57.44 30.44C57.43 32.84 55.54 34.79 53.16 34.87Z" stroke="#292D32" stroke-width="1.5" stroke-linecap="round" stroke-linejoin="round" />
    <path d="M48.16 38.56C45.74 40.18 45.74 42.82 48.16 44.43C50.91 46.27 55.42 46.27 58.17 44.43C60.59 42.81 60.59 40.17 58.17 38.56C55.43 36.73 50.92 36.73 48.16 38.56Z" stroke="#292D32" stroke-width="1.5" stroke-linecap="round" stroke-linejoin="round" />
</svg>