<svg width="226" height="226" viewBox="0 0 226 226" fill="none" xmlns="http://www.w3.org/2000/svg">
    <g filter="url(#filter0_f_7_17)">
        <path d="M113 161C139.51 161 161 139.51 161 113C161 86.4903 139.51 65 113 65C86.4903 65 65 86.4903 65 113C65 139.51 86.4903 161 113 161Z" fill="url(#paint0_linear_7_17)" />
        <path
            d="M127.906 94.8441C127.256 94.8441 126.621 95.0366 126.082 95.3974C125.542 95.7581 125.121 96.2709 124.872 96.8708C124.624 97.4707 124.559 98.1309 124.685 98.7678C124.812 99.4046 125.125 99.9896 125.584 100.449C126.043 100.908 126.628 101.221 127.265 101.347C127.902 101.474 128.562 101.409 129.162 101.16C129.762 100.912 130.275 100.491 130.635 99.9513C130.996 99.4113 131.189 98.7766 131.189 98.1272C131.189 97.2565 130.843 96.4214 130.227 95.8057C129.611 95.19 128.776 94.8441 127.906 94.8441Z"
            fill="white" />
        <path
            d="M113.23 99.145C110.477 99.1386 107.785 99.9501 105.495 101.477C103.205 103.003 101.42 105.176 100.366 107.718C99.3132 110.261 99.0393 113.06 99.5795 115.758C100.12 118.457 101.45 120.935 103.4 122.876C105.351 124.818 107.835 126.136 110.536 126.663C113.238 127.191 116.035 126.903 118.573 125.838C121.11 124.773 123.274 122.978 124.79 120.68C126.305 118.383 127.104 115.687 127.085 112.934C127.059 109.274 125.589 105.772 122.994 103.189C120.399 100.607 116.89 99.1536 113.23 99.145ZM113.23 121.897C111.469 121.904 109.745 121.388 108.278 120.414C106.81 119.44 105.665 118.053 104.986 116.428C104.308 114.802 104.127 113.012 104.466 111.284C104.806 109.556 105.651 107.968 106.894 106.72C108.137 105.473 109.722 104.622 111.449 104.276C113.176 103.93 114.966 104.104 116.594 104.777C118.222 105.449 119.613 106.59 120.592 108.053C121.572 109.517 122.094 111.239 122.094 113C122.069 115.34 121.125 117.576 119.467 119.228C117.81 120.88 115.57 121.815 113.23 121.832V121.897Z"
            fill="white" />
        <path
            d="M124.228 141.104H101.772C97.2898 141.095 92.9941 139.311 89.8251 136.142C86.656 132.973 84.8718 128.677 84.8632 124.196V101.706C84.8718 97.2242 86.656 92.9285 89.8251 89.7595C92.9941 86.5904 97.2898 84.8062 101.772 84.7975H124.228C128.71 84.8062 133.006 86.5904 136.175 89.7595C139.344 92.9285 141.128 97.2242 141.137 101.706V124.196C141.128 128.677 139.344 132.973 136.175 136.142C133.006 139.311 128.71 141.095 124.228 141.104ZM101.772 90.0834C98.6917 90.0921 95.7405 91.3194 93.5628 93.4971C91.385 95.6749 90.1577 98.6261 90.1491 101.706V124.196C90.1578 127.272 91.3861 130.22 93.5648 132.393C95.7435 134.565 98.6947 135.785 101.772 135.785H124.228C127.305 135.785 130.256 134.565 132.435 132.393C134.614 130.22 135.842 127.272 135.851 124.196V101.706C135.842 98.6261 134.615 95.6749 132.437 93.4971C130.259 91.3194 127.308 90.0921 124.228 90.0834H101.772Z"
            fill="white" />
    </g>
    <path d="M113 161C139.51 161 161 139.51 161 113C161 86.4903 139.51 65 113 65C86.4903 65 65 86.4903 65 113C65 139.51 86.4903 161 113 161Z" fill="url(#paint1_linear_7_17)" />
    <path d="M113 161C139.51 161 161 139.51 161 113C161 86.4903 139.51 65 113 65C86.4903 65 65 86.4903 65 113C65 139.51 86.4903 161 113 161Z" fill="black" fill-opacity="0.2" />
    <path
        d="M127.906 94.8441C127.256 94.8441 126.621 95.0366 126.082 95.3974C125.542 95.7581 125.121 96.2709 124.872 96.8708C124.624 97.4707 124.559 98.1309 124.685 98.7678C124.812 99.4046 125.125 99.9896 125.584 100.449C126.043 100.908 126.628 101.221 127.265 101.347C127.902 101.474 128.562 101.409 129.162 101.16C129.762 100.912 130.275 100.491 130.635 99.9513C130.996 99.4113 131.189 98.7766 131.189 98.1272C131.189 97.2565 130.843 96.4214 130.227 95.8057C129.611 95.19 128.776 94.8441 127.906 94.8441Z"
        fill="white" />
    <path
        d="M113.23 99.145C110.477 99.1386 107.785 99.9501 105.495 101.477C103.205 103.003 101.42 105.176 100.366 107.718C99.3132 110.261 99.0393 113.06 99.5795 115.758C100.12 118.457 101.45 120.935 103.4 122.876C105.351 124.818 107.835 126.136 110.536 126.663C113.238 127.191 116.035 126.903 118.573 125.838C121.11 124.773 123.274 122.978 124.79 120.68C126.305 118.383 127.104 115.687 127.085 112.934C127.059 109.274 125.589 105.772 122.994 103.189C120.399 100.607 116.89 99.1536 113.23 99.145ZM113.23 121.897C111.469 121.904 109.745 121.388 108.278 120.414C106.81 119.44 105.665 118.053 104.986 116.428C104.308 114.802 104.127 113.012 104.466 111.284C104.806 109.556 105.651 107.968 106.894 106.72C108.137 105.473 109.722 104.622 111.449 104.276C113.176 103.93 114.966 104.104 116.594 104.777C118.222 105.449 119.613 106.59 120.592 108.053C121.572 109.517 122.094 111.239 122.094 113C122.069 115.34 121.125 117.576 119.467 119.228C117.81 120.88 115.57 121.815 113.23 121.832V121.897Z"
        fill="white" />
    <path
        d="M124.228 141.104H101.772C97.2898 141.095 92.9941 139.311 89.8251 136.142C86.656 132.973 84.8718 128.677 84.8632 124.196V101.706C84.8718 97.2242 86.656 92.9285 89.8251 89.7595C92.9941 86.5904 97.2898 84.8062 101.772 84.7975H124.228C128.71 84.8062 133.006 86.5904 136.175 89.7595C139.344 92.9285 141.128 97.2242 141.137 101.706V124.196C141.128 128.677 139.344 132.973 136.175 136.142C133.006 139.311 128.71 141.095 124.228 141.104ZM101.772 90.0834C98.6917 90.0921 95.7405 91.3194 93.5628 93.4971C91.385 95.6749 90.1577 98.6261 90.1491 101.706V124.196C90.1578 127.272 91.3861 130.22 93.5648 132.393C95.7435 134.565 98.6947 135.785 101.772 135.785H124.228C127.305 135.785 130.256 134.565 132.435 132.393C134.614 130.22 135.842 127.272 135.851 124.196V101.706C135.842 98.6261 134.615 95.6749 132.437 93.4971C130.259 91.3194 127.308 90.0921 124.228 90.0834H101.772Z"
        fill="white" />
    <defs>
        <filter id="filter0_f_7_17" x="0" y="0" width="226" height="226" filterUnits="userSpaceOnUse" color-interpolation-filters="sRGB">
            <feFlood flood-opacity="0" result="BackgroundImageFix" />
            <feBlend mode="normal" in="SourceGraphic" in2="BackgroundImageFix" result="shape" />
            <feGaussianBlur stdDeviation="32.5" result="effect1_foregroundBlur_7_17" />
        </filter>
        <linearGradient id="paint0_linear_7_17" x1="146.948" y1="79.052" x2="79.052" y2="146.948" gradientUnits="userSpaceOnUse">
            <stop stop-color="#FBE18A" />
            <stop offset="0.21" stop-color="#FCBB45" />
            <stop offset="0.38" stop-color="#F75274" />
            <stop offset="0.52" stop-color="#D53692" />
            <stop offset="0.74" stop-color="#8F39CE" />
            <stop offset="1" stop-color="#5B4FE9" />
        </linearGradient>
        <linearGradient id="paint1_linear_7_17" x1="146.948" y1="79.052" x2="79.052" y2="146.948" gradientUnits="userSpaceOnUse">
            <stop stop-color="#FBE18A" />
            <stop offset="0.21" stop-color="#FCBB45" />
            <stop offset="0.38" stop-color="#F75274" />
            <stop offset="0.52" stop-color="#D53692" />
            <stop offset="0.74" stop-color="#8F39CE" />
            <stop offset="1" stop-color="#5B4FE9" />
        </linearGradient>
    </defs>
</svg>