<svg width="226" height="226" viewBox="0 0 226 226" fill="none" xmlns="http://www.w3.org/2000/svg">
    <g filter="url(#filter0_f_8_198)">
        <path d="M113 161C139.51 161 161 139.51 161 113C161 86.4903 139.51 65 113 65C86.4903 65 65 86.4903 65 113C65 139.51 86.4903 161 113 161Z" fill="url(#paint0_linear_8_198)" />
        <path
            d="M92.8741 104.07H102.034V133.947H92.8741V104.07ZM97.5034 89.3283C98.5752 89.3154 99.6265 89.6227 100.523 90.2108C101.419 90.799 102.119 91.6412 102.533 92.6296C102.948 93.6181 103.058 94.7077 102.85 95.7592C102.641 96.8106 102.124 97.7759 101.364 98.5314C100.603 99.287 99.635 99.7985 98.5823 100C97.5296 100.202 96.4406 100.085 95.4548 99.6646C94.4689 99.2439 93.6311 98.5385 93.0485 97.6388C92.4659 96.7391 92.1651 95.6859 92.1847 94.6142C92.2019 93.212 92.7688 91.8725 93.7634 90.884C94.7581 89.8954 96.1011 89.3368 97.5034 89.3283Z"
            fill="white" />
        <path
            d="M107.977 104.07H116.907V108.141C117.811 106.628 119.104 105.385 120.651 104.542C122.199 103.699 123.945 103.286 125.706 103.348C135.096 103.348 136.836 109.52 136.836 117.564V133.98H127.676V119.435C127.676 116.152 127.676 111.523 122.85 111.523C118.023 111.523 117.268 115.298 117.268 119.205V133.98H107.977V104.07Z"
            fill="white" />
    </g>
    <path d="M113 161C139.51 161 161 139.51 161 113C161 86.4903 139.51 65 113 65C86.4903 65 65 86.4903 65 113C65 139.51 86.4903 161 113 161Z" fill="url(#paint1_linear_8_198)" />
    <path
        d="M92.8741 104.07H102.034V133.947H92.8741V104.07ZM97.5034 89.3283C98.5752 89.3154 99.6265 89.6227 100.523 90.2108C101.419 90.799 102.119 91.6412 102.533 92.6296C102.948 93.6181 103.058 94.7077 102.85 95.7592C102.641 96.8106 102.124 97.7759 101.364 98.5314C100.603 99.287 99.635 99.7985 98.5823 100C97.5296 100.202 96.4406 100.085 95.4548 99.6646C94.4689 99.2439 93.6311 98.5385 93.0485 97.6388C92.4659 96.7391 92.1651 95.6859 92.1847 94.6142C92.2019 93.212 92.7688 91.8725 93.7634 90.884C94.7581 89.8954 96.1011 89.3368 97.5034 89.3283Z"
        fill="white" />
    <path
        d="M107.977 104.07H116.907V108.141C117.811 106.628 119.104 105.385 120.651 104.542C122.199 103.699 123.945 103.286 125.706 103.348C135.096 103.348 136.836 109.52 136.836 117.564V133.98H127.676V119.435C127.676 116.152 127.676 111.523 122.85 111.523C118.023 111.523 117.268 115.298 117.268 119.205V133.98H107.977V104.07Z"
        fill="white" />
    <defs>
        <filter id="filter0_f_8_198" x="0" y="0" width="226" height="226" filterUnits="userSpaceOnUse" color-interpolation-filters="sRGB">
            <feFlood flood-opacity="0" result="BackgroundImageFix" />
            <feBlend mode="normal" in="SourceGraphic" in2="BackgroundImageFix" result="shape" />
            <feGaussianBlur stdDeviation="32.5" result="effect1_foregroundBlur_8_198" />
        </filter>
        <linearGradient id="paint0_linear_8_198" x1="146.948" y1="79.052" x2="79.052" y2="146.948" gradientUnits="userSpaceOnUse">
            <stop stop-color="#007AB5" />
            <stop offset="1" stop-color="#0046E5" />
        </linearGradient>
        <linearGradient id="paint1_linear_8_198" x1="146.948" y1="79.052" x2="79.052" y2="146.948" gradientUnits="userSpaceOnUse">
            <stop stop-color="#007AB5" />
            <stop offset="1" stop-color="#0046E5" />
        </linearGradient>
    </defs>
</svg>