<svg width="228" height="228" viewBox="0 0 228 228" fill="none" xmlns="http://www.w3.org/2000/svg">
    <g filter="url(#filter0_f_104_10)">
        <path d="M132.364 158.345C156.856 148.2 168.487 120.121 158.342 95.6297C148.197 71.138 120.118 59.5075 95.6267 69.6523C71.135 79.7971 59.5045 107.876 69.6493 132.367C79.7941 156.859 107.873 168.49 132.364 158.345Z" fill="url(#paint0_linear_104_10)" />
        <path fill-rule="evenodd" clip-rule="evenodd"
            d="M110.323 124.44C110.313 124.583 110.313 124.725 110.323 124.867C108.189 133.272 107.926 135.144 105.726 139.018C104.674 140.856 103.501 142.622 102.213 144.304C102.213 144.501 101.918 144.731 101.622 144.665C101.327 144.599 101.261 144.337 101.228 144.074C100.879 141.529 100.725 138.96 100.769 136.391C100.769 133.108 101.294 131.893 105.628 113.737C105.713 113.493 105.713 113.227 105.628 112.982C104.536 110.271 104.42 107.266 105.3 104.479C107.237 98.2736 114.263 97.9125 115.477 102.936C116.233 106.219 114.23 110.224 112.719 116.331C111.439 121.387 117.382 124.966 122.569 121.289C127.756 117.611 129.135 109.765 128.741 103.986C128.052 92.4624 115.609 90 107.434 93.71C98.2735 97.9453 96.1723 109.305 100.309 114.492C100.834 115.182 101.261 115.576 101.064 116.233C100.867 116.889 100.572 118.334 100.276 119.352C100.247 119.524 100.176 119.686 100.07 119.825C99.9645 119.963 99.8268 120.075 99.6688 120.149C99.5109 120.223 99.3374 120.258 99.163 120.25C98.9887 120.243 98.8187 120.194 98.6675 120.107C97.1566 119.496 95.8321 118.5 94.8262 117.217C92.8092 114.225 91.7317 110.698 91.7317 107.089C91.7317 103.48 92.8092 99.9531 94.8262 96.9603C97.3846 93.2181 100.939 90.2663 105.087 88.4387C109.236 86.6111 113.813 85.9805 118.301 86.6183C122.758 86.8771 126.996 88.6425 130.318 91.6251C133.641 94.6076 135.852 98.6305 136.588 103.034C137.397 109.851 135.603 116.722 131.565 122.274C125.622 129.661 115.97 130.153 111.505 125.557C111.084 125.214 110.689 124.841 110.323 124.44V124.44Z"
            fill="white" />
    </g>
    <path d="M66.2587 161.165H84.7876V116.166L58.3177 96.3137V153.224C58.3177 157.618 61.8779 161.165 66.2587 161.165Z" fill="#4285F4" />
    <path d="M148.315 161.165H166.844C171.238 161.165 174.785 157.605 174.785 153.224V96.3137L148.315 116.166" fill="#34A853" />
    <path d="M148.315 81.7557V116.167L174.785 96.3142V85.7262C174.785 75.9059 163.575 70.3075 155.727 76.1971" fill="#FBBC04" />
    <path d="M84.7876 116.166V81.7552L116.551 105.578L148.315 81.7552V116.166L116.551 139.989" fill="#EA4335" />
    <path d="M58.3177 85.7262V96.3142L84.7876 116.167V81.7557L77.376 76.1971C69.5145 70.3075 58.3177 75.9059 58.3177 85.7262" fill="#C5221F" />
    <defs>
        <filter id="filter0_f_104_10" x="0.982971" y="0.985962" width="226.025" height="226.025" filterUnits="userSpaceOnUse" color-interpolation-filters="sRGB">
            <feFlood flood-opacity="0" result="BackgroundImageFix" />
            <feBlend mode="normal" in="SourceGraphic" in2="BackgroundImageFix" result="shape" />
            <feGaussianBlur stdDeviation="32.5" result="effect1_foregroundBlur_104_10" />
        </filter>
        <linearGradient id="paint0_linear_104_10" x1="147.935" y1="80.0564" x2="80.039" y2="147.952" gradientUnits="userSpaceOnUse">
            <stop stop-color="#FC4D3F" />
            <stop offset="1" stop-color="#CD083F" />
        </linearGradient>
    </defs>
</svg>